<svg width="485.03" height="109.404" viewBox="0 0 128.326 28.947" xmlns="http://www.w3.org/2000/svg"><text style="line-height:1.25;stroke:#fff;stroke-width:4.01625;stroke-linejoin:round;stroke-miterlimit:4;stroke-dasharray:none;paint-order:stroke fill markers" x="26.804" y="17.727" stroke-width=".31" font-family="sans-serif" font-size="12.46" font-weight="400" transform="translate(1.495 1.494)"><tspan x="26.804" y="17.727" style="-inkscape-font-specification:Ubuntu;stroke:#fff;stroke-width:4.01625;stroke-linejoin:round;stroke-miterlimit:4;stroke-dasharray:none;paint-order:stroke fill markers" font-family="Ubuntu"><tspan font-weight="700" style="stroke:#fff;stroke-width:4.01625;stroke-linejoin:round;stroke-miterlimit:4;stroke-dasharray:none;paint-order:stroke fill markers">Rich Text</tspan> Laravel</tspan></text><path stroke-linecap="round" stroke-width="2.438" d="M6.879 12.98h7.314m-7.314 4.875h7.314m2.438 6.095H4.441a2.438 2.438 0 0 1-2.437-2.438V4.447a2.438 2.438 0 0 1 2.437-2.438h6.81a1.219 1.219 0 0 1 .861.357l6.6 6.6a1.219 1.219 0 0 1 .357.861v11.685a2.438 2.438 0 0 1-2.438 2.438z" fill="none" stroke="currentColor" style="stroke:#fff;stroke-width:7.00606;stroke-linejoin:round;stroke-miterlimit:4;stroke-dasharray:none;paint-order:stroke fill markers" transform="translate(1.495 1.494)"/><path stroke-linecap="round" stroke-linejoin="round" stroke-width="2.438" d="M8.374 14.474h7.314m-7.314 4.874h7.314m2.438 6.095H5.936a2.438 2.438 0 0 1-2.438-2.438V5.94a2.438 2.438 0 0 1 2.437-2.438h6.81a1.219 1.219 0 0 1 .86.357l6.6 6.6a1.219 1.219 0 0 1 .358.861v11.685a2.438 2.438 0 0 1-2.438 2.438z" fill="none" stroke="currentColor"/><path style="fill:#fff;stroke:#fff;stroke-width:13.2188;stroke-linejoin:round;stroke-miterlimit:4;stroke-dasharray:none;paint-order:stroke fill markers" d="M21.217 28.652v-7.685h17.236l7.225 7.239 7.226 7.239-13.971.011c-7.685.007-14.815.208-15.844.447l-1.872.435z" transform="matrix(.26459 0 0 .26459 1.492 1.494)"/></svg>