<?xml version="1.0" encoding="UTF-8" standalone="no"?>
<svg
   width="485.03"
   height="109.404"
   viewBox="0 0 128.326 28.947"
   version="1.1"
   id="svg14"
   sodipodi:docname="rich-text-laravel-logo.svg"
   inkscape:version="1.1.1 (3bf5ae0d25, 2021-09-20)"
   xmlns:inkscape="http://www.inkscape.org/namespaces/inkscape"
   xmlns:sodipodi="http://sodipodi.sourceforge.net/DTD/sodipodi-0.dtd"
   xmlns="http://www.w3.org/2000/svg"
   xmlns:svg="http://www.w3.org/2000/svg">
  <defs
     id="defs18" />
  <sodipodi:namedview
     id="namedview16"
     pagecolor="#ffffff"
     bordercolor="#666666"
     borderopacity="1.0"
     inkscape:pageshadow="2"
     inkscape:pageopacity="0.0"
     inkscape:pagecheckerboard="0"
     showgrid="false"
     inkscape:zoom="1.5277406"
     inkscape:cx="234.0057"
     inkscape:cy="40.582807"
     inkscape:window-width="1920"
     inkscape:window-height="1016"
     inkscape:window-x="960"
     inkscape:window-y="27"
     inkscape:window-maximized="1"
     inkscape:current-layer="svg14" />
  <path
     id="text6"
     style="line-height:1.25;stroke:#ffffff;stroke-width:11.1294;stroke-linejoin:round;stroke-miterlimit:4;stroke-dasharray:none;paint-order:stroke fill markers"
     d="M 198.51758 42.257812 L 193.37305 43.085938 L 193.37305 69.050781 L 198.51758 69.050781 L 198.51758 55.240234 C 198.83984 55.14816 199.19657 55.067103 199.58789 54.998047 C 200.00223 54.905972 200.44002 54.859375 200.90039 54.859375 C 202.05132 54.859375 202.83371 55.205924 203.24805 55.896484 C 203.6854 56.587044 203.9043 57.760625 203.9043 59.417969 L 203.9043 69.050781 L 209.04883 69.050781 L 209.04883 58.796875 C 209.04883 57.553867 208.92117 56.424931 208.66797 55.412109 C 208.43778 54.399288 208.02427 53.52566 207.42578 52.789062 C 206.85031 52.052465 206.06793 51.487021 205.07812 51.095703 C 204.11134 50.681367 202.89116 50.474609 201.41797 50.474609 C 200.91156 50.474609 200.38253 50.531391 199.83008 50.646484 C 199.30065 50.738559 198.86286 50.843891 198.51758 50.958984 L 198.51758 42.257812 z M 409.62109 42.257812 L 406.41016 42.808594 L 406.41016 64.355469 C 406.41016 66.05885 406.82367 67.313487 407.65234 68.119141 C 408.48102 68.924794 409.88563 69.350447 411.86523 69.396484 L 412.31445 66.703125 C 411.80804 66.634069 411.38239 66.553012 411.03711 66.460938 C 410.69183 66.345844 410.4142 66.185684 410.20703 65.978516 C 409.99986 65.771348 409.85184 65.493718 409.75977 65.148438 C 409.66769 64.803157 409.62109 64.36732 409.62109 63.837891 L 409.62109 42.257812 z M 168.68555 42.601562 C 167.85687 42.601563 167.13127 42.879193 166.50977 43.431641 C 165.91128 43.96107 165.61133 44.69686 165.61133 45.640625 C 165.61133 46.58439 165.91128 47.332318 166.50977 47.884766 C 167.13127 48.414195 167.85687 48.679688 168.68555 48.679688 C 169.51422 48.679688 170.22769 48.414195 170.82617 47.884766 C 171.44768 47.332318 171.75781 46.58439 171.75781 45.640625 C 171.75781 44.69686 171.44768 43.96107 170.82617 43.431641 C 170.22769 42.879193 169.51422 42.601562 168.68555 42.601562 z M 150.45508 44.845703 C 149.46528 44.845703 148.33634 44.8923 147.07031 44.984375 C 145.8273 45.07645 144.61926 45.238563 143.44531 45.46875 L 143.44531 69.050781 L 148.83203 69.050781 L 148.83203 60.314453 L 151.49023 60.314453 C 151.95061 60.866901 152.41072 61.489127 152.87109 62.179688 C 153.33147 62.847229 153.79158 63.560696 154.25195 64.320312 C 154.73535 65.079929 155.19546 65.862315 155.63281 66.667969 C 156.09319 67.473622 156.54311 68.268146 156.98047 69.050781 L 163.02148 69.050781 C 162.60715 68.176072 162.15917 67.290306 161.67578 66.392578 C 161.19239 65.471831 160.68568 64.59625 160.15625 63.767578 C 159.64984 62.915887 159.13295 62.111179 158.60352 61.351562 C 158.07409 60.568928 157.56738 59.877782 157.08398 59.279297 C 158.53416 58.680811 159.63882 57.863965 160.39844 56.828125 C 161.18107 55.769266 161.57227 54.399113 161.57227 52.71875 C 161.57227 50.025566 160.61758 48.045324 158.70703 46.779297 C 156.79648 45.490251 154.04599 44.845703 150.45508 44.845703 z M 220.26953 45.123047 L 220.26953 49.714844 L 227.48633 49.714844 L 227.48633 69.050781 L 232.87305 69.050781 L 232.87305 49.714844 L 240.08789 49.714844 L 240.08789 45.123047 L 220.26953 45.123047 z M 303.75781 45.123047 L 303.75781 69.050781 L 318.15625 69.050781 L 318.15625 66.150391 L 307.10742 66.150391 L 307.10742 45.123047 L 303.75781 45.123047 z M 284.87109 45.537109 L 279.72656 46.365234 L 279.72656 61.626953 C 279.72656 62.800905 279.82994 63.871107 280.03711 64.837891 C 280.2673 65.804675 280.65849 66.633659 281.21094 67.324219 C 281.76339 67.99176 282.50113 68.520792 283.42188 68.912109 C 284.34262 69.280408 285.50406 69.464844 286.9082 69.464844 C 288.0131 69.464844 288.94546 69.373602 289.70508 69.189453 C 290.46469 69.005304 291.15584 68.786408 291.77734 68.533203 L 291.05273 64.527344 C 290.56934 64.711493 290.02817 64.861469 289.42969 64.976562 C 288.85422 65.068637 288.28878 65.115234 287.73633 65.115234 C 286.58539 65.115234 285.81515 64.79296 285.42383 64.148438 C 285.05553 63.503915 284.87109 62.640471 284.87109 61.558594 L 284.87109 55.169922 L 291.05273 55.169922 L 291.05273 50.888672 L 284.87109 50.888672 L 284.87109 45.537109 z M 150.76562 49.439453 C 152.49203 49.439453 153.79131 49.692808 154.66602 50.199219 C 155.56374 50.682611 156.01367 51.509642 156.01367 52.683594 C 156.01367 53.903583 155.57588 54.767027 154.70117 55.273438 C 153.82646 55.779848 152.37525 56.033203 150.34961 56.033203 L 148.83203 56.033203 L 148.83203 49.542969 C 149.10826 49.51995 149.39607 49.495675 149.69531 49.472656 C 150.01757 49.449638 150.37431 49.439453 150.76562 49.439453 z M 184.60156 50.40625 C 183.12837 50.40625 181.81695 50.659605 180.66602 51.166016 C 179.51508 51.672426 178.53612 52.361619 177.73047 53.236328 C 176.92482 54.088019 176.30454 55.101438 175.86719 56.275391 C 175.45285 57.426324 175.24609 58.658639 175.24609 59.970703 C 175.24609 61.328805 175.41839 62.593626 175.76367 63.767578 C 176.13197 64.918512 176.69546 65.919794 177.45508 66.771484 C 178.23771 67.623175 179.22686 68.302183 180.42383 68.808594 C 181.6208 69.291986 183.04773 69.535156 184.70508 69.535156 C 185.78696 69.535156 186.77805 69.441962 187.67578 69.257812 C 188.57351 69.073663 189.32144 68.854768 189.91992 68.601562 L 189.19531 64.388672 C 188.59683 64.641877 187.94014 64.826313 187.22656 64.941406 C 186.51298 65.0565 185.84611 65.115234 185.22461 65.115234 C 183.47519 65.115234 182.24288 64.665306 181.5293 63.767578 C 180.83874 62.86985 180.49414 61.605029 180.49414 59.970703 C 180.49414 58.428452 180.86106 57.184 181.59766 56.240234 C 182.35727 55.296469 183.49835 54.826172 185.01758 54.826172 C 185.73116 54.826172 186.37571 54.895091 186.95117 55.033203 C 187.52664 55.171315 188.05567 55.331476 188.53906 55.515625 L 189.60938 51.40625 C 188.84976 51.083989 188.06737 50.842771 187.26172 50.681641 C 186.45607 50.497491 185.56835 50.40625 184.60156 50.40625 z M 248.44531 50.40625 C 247.34042 50.40625 246.25808 50.613008 245.19922 51.027344 C 244.16338 51.44168 243.24315 52.051768 242.4375 52.857422 C 241.63185 53.663075 240.97516 54.676495 240.46875 55.896484 C 239.98536 57.093455 239.74414 58.496115 239.74414 60.107422 C 239.74414 61.442505 239.92662 62.686957 240.29492 63.837891 C 240.68624 64.988824 241.27401 65.990106 242.05664 66.841797 C 242.86229 67.670469 243.86358 68.325202 245.06055 68.808594 C 246.28054 69.291986 247.70747 69.535156 249.3418 69.535156 C 249.98632 69.535156 250.63087 69.498744 251.27539 69.429688 C 251.91991 69.360631 252.51786 69.26939 253.07031 69.154297 C 253.64578 69.062222 254.16463 68.946706 254.625 68.808594 C 255.08537 68.670482 255.45424 68.532643 255.73047 68.394531 L 255.03906 64.216797 C 254.4636 64.470002 253.71567 64.688898 252.79492 64.873047 C 251.89719 65.034178 250.97697 65.115234 250.0332 65.115234 C 248.56001 65.115234 247.38643 64.803145 246.51172 64.181641 C 245.63701 63.560137 245.14048 62.720968 245.02539 61.662109 L 256.69727 61.662109 C 256.72028 61.385885 256.74261 61.075749 256.76562 60.730469 C 256.78864 60.36217 256.80078 60.027758 256.80078 59.728516 C 256.80078 56.667033 256.05285 54.354332 254.55664 52.789062 C 253.06043 51.200774 251.0234 50.40625 248.44531 50.40625 z M 327.27148 50.646484 C 326.14357 50.646484 325.09569 50.739679 324.12891 50.923828 C 323.16212 51.084959 322.47293 51.257257 322.05859 51.441406 L 322.4375 54.099609 C 322.82882 53.938479 323.41658 53.788503 324.19922 53.650391 C 325.00487 53.48926 325.93723 53.410156 326.99609 53.410156 C 327.82477 53.410156 328.49164 53.535857 328.99805 53.789062 C 329.52748 54.019249 329.94099 54.341523 330.24023 54.755859 C 330.53948 55.147177 330.74819 55.607289 330.86328 56.136719 C 330.97837 56.643129 331.03516 57.161977 331.03516 57.691406 L 331.03516 58.587891 C 330.94308 58.564872 330.78292 58.530412 330.55273 58.484375 C 330.32255 58.438338 330.04492 58.393694 329.72266 58.347656 C 329.42341 58.2786 329.10114 58.232003 328.75586 58.208984 C 328.41058 58.162947 328.07812 58.140625 327.75586 58.140625 C 326.74304 58.140625 325.77622 58.244004 324.85547 58.451172 C 323.93472 58.65834 323.12806 58.980614 322.4375 59.417969 C 321.74694 59.855323 321.19559 60.430952 320.78125 61.144531 C 320.38993 61.85811 320.19336 62.709416 320.19336 63.699219 C 320.19336 64.735059 320.36566 65.620824 320.71094 66.357422 C 321.05622 67.094019 321.54061 67.69197 322.16211 68.152344 C 322.78361 68.589698 323.5194 68.911973 324.37109 69.119141 C 325.22278 69.326309 326.15515 69.429688 327.16797 69.429688 C 327.88155 69.429687 328.59501 69.395228 329.30859 69.326172 C 330.04519 69.280135 330.7242 69.223353 331.3457 69.154297 C 331.96721 69.085241 332.52051 69.016322 333.00391 68.947266 C 333.51032 68.855191 333.90151 68.786272 334.17773 68.740234 L 334.17773 57.517578 C 334.17773 56.504757 334.06222 55.584531 333.83203 54.755859 C 333.60184 53.904169 333.21065 53.178564 332.6582 52.580078 C 332.12877 51.958574 331.41531 51.488277 330.51758 51.166016 C 329.64287 50.820736 328.56053 50.646484 327.27148 50.646484 z M 358.62305 50.646484 C 357.49513 50.646484 356.44725 50.739679 355.48047 50.923828 C 354.51368 51.084959 353.82449 51.257257 353.41016 51.441406 L 353.78906 54.099609 C 354.18038 53.938479 354.76815 53.788503 355.55078 53.650391 C 356.35643 53.48926 357.2888 53.410156 358.34766 53.410156 C 359.17633 53.410156 359.8432 53.535857 360.34961 53.789062 C 360.87904 54.019249 361.29255 54.341523 361.5918 54.755859 C 361.89104 55.147177 362.09975 55.607289 362.21484 56.136719 C 362.32994 56.643129 362.38672 57.161977 362.38672 57.691406 L 362.38672 58.587891 C 362.29464 58.564872 362.13253 58.530412 361.90234 58.484375 C 361.67216 58.438338 361.39648 58.393694 361.07422 58.347656 C 360.77498 58.2786 360.4527 58.232003 360.10742 58.208984 C 359.76214 58.162947 359.42968 58.140625 359.10742 58.140625 C 358.0946 58.140625 357.12778 58.244004 356.20703 58.451172 C 355.28628 58.65834 354.47962 58.980614 353.78906 59.417969 C 353.0985 59.855323 352.5452 60.430952 352.13086 61.144531 C 351.73954 61.85811 351.54492 62.709416 351.54492 63.699219 C 351.54492 64.735059 351.71722 65.620824 352.0625 66.357422 C 352.40778 67.094019 352.89217 67.69197 353.51367 68.152344 C 354.13518 68.589698 354.87097 68.911973 355.72266 69.119141 C 356.57435 69.326309 357.50671 69.429688 358.51953 69.429688 C 359.23311 69.429687 359.94658 69.395228 360.66016 69.326172 C 361.39675 69.280135 362.07576 69.223353 362.69727 69.154297 C 363.31877 69.085241 363.87208 69.016322 364.35547 68.947266 C 364.86188 68.855191 365.25307 68.786272 365.5293 68.740234 L 365.5293 57.517578 C 365.5293 56.504757 365.41378 55.584531 365.18359 54.755859 C 364.95341 53.904169 364.56221 53.178564 364.00977 52.580078 C 363.48034 51.958574 362.76687 51.488277 361.86914 51.166016 C 360.99443 50.820736 359.91209 50.646484 358.62305 50.646484 z M 394.35938 50.646484 C 393.32353 50.646484 392.31012 50.843058 391.32031 51.234375 C 390.33051 51.625692 389.45688 52.213459 388.69727 52.996094 C 387.93765 53.778729 387.32756 54.767873 386.86719 55.964844 C 386.40681 57.138796 386.17578 58.519134 386.17578 60.107422 C 386.17578 61.465523 386.34808 62.72016 386.69336 63.871094 C 387.06166 64.999009 387.61497 65.977969 388.35156 66.806641 C 389.08816 67.635313 390.02052 68.291999 391.14844 68.775391 C 392.29937 69.235764 393.65739 69.464844 395.22266 69.464844 C 396.46566 69.464844 397.57033 69.349327 398.53711 69.119141 C 399.52691 68.888954 400.21806 68.670059 400.60938 68.462891 L 400.16016 65.771484 C 399.76884 65.955634 399.18107 66.150254 398.39844 66.357422 C 397.63882 66.541571 396.69627 66.634766 395.56836 66.634766 C 393.56574 66.634766 392.0922 66.150378 391.14844 65.183594 C 390.20467 64.21681 389.6635 62.802012 389.52539 60.9375 L 401.81836 60.9375 C 401.84138 60.753351 401.85156 60.556777 401.85156 60.349609 L 401.85156 59.796875 C 401.85156 56.712373 401.20701 54.421995 399.91797 52.925781 C 398.62892 51.406549 396.77634 50.646484 394.35938 50.646484 z M 346.12305 50.716797 C 344.71891 50.716797 343.45409 50.842498 342.32617 51.095703 C 341.19826 51.32589 340.25376 51.579245 339.49414 51.855469 L 339.49414 69.050781 L 342.70508 69.050781 L 342.70508 53.962891 C 342.88923 53.916853 343.27024 53.835796 343.8457 53.720703 C 344.44419 53.582591 345.04214 53.513672 345.64062 53.513672 C 346.56137 53.513672 347.3093 53.582591 347.88477 53.720703 C 348.48325 53.835796 348.9089 53.939175 349.16211 54.03125 L 349.71484 51.234375 C 349.57673 51.188338 349.35784 51.14174 349.05859 51.095703 C 348.78237 51.026647 348.47223 50.969865 348.12695 50.923828 C 347.78167 50.854772 347.42494 50.808175 347.05664 50.785156 C 346.71136 50.739119 346.39927 50.716797 346.12305 50.716797 z M 166.12891 50.888672 L 166.12891 69.050781 L 171.27539 69.050781 L 171.27539 50.888672 L 166.12891 50.888672 z M 258.83789 50.888672 C 259.85071 52.338848 260.87432 53.81238 261.91016 55.308594 C 262.946 56.781789 263.98174 58.243183 265.01758 59.693359 C 264.41909 60.429957 263.809 61.224481 263.1875 62.076172 C 262.566 62.904844 261.96804 63.745965 261.39258 64.597656 C 260.84013 65.426328 260.32128 66.231037 259.83789 67.013672 C 259.3545 67.796307 258.97544 68.475315 258.69922 69.050781 L 263.94727 69.050781 C 264.17745 68.590408 264.44294 68.095836 264.74219 67.566406 L 265.70898 65.978516 C 266.03125 65.426068 266.3637 64.884898 266.70898 64.355469 C 267.07728 63.826039 267.43402 63.341652 267.7793 62.904297 C 268.1476 63.36467 268.51647 63.883518 268.88477 64.458984 C 269.27608 65.011432 269.64495 65.574924 269.99023 66.150391 C 270.33551 66.702839 270.64565 67.244008 270.92188 67.773438 C 271.1981 68.279848 271.42913 68.705501 271.61328 69.050781 L 277.13672 69.050781 C 276.46918 67.761736 275.57127 66.300341 274.44336 64.666016 C 273.31544 63.03169 272.06081 61.3514 270.67969 59.625 L 276.89453 50.888672 L 271.57812 50.888672 L 267.98633 56.414062 L 264.39648 50.888672 L 258.83789 50.888672 z M 368.11914 51.095703 C 369.01687 54.456429 370.06279 57.67917 371.25977 60.763672 C 372.47976 63.848174 373.65334 66.610802 374.78125 69.050781 L 377.68164 69.050781 C 378.80956 66.610802 379.97295 63.848174 381.16992 60.763672 C 382.38991 57.67917 383.44798 54.456429 384.3457 51.095703 L 381.03125 51.095703 C 380.75503 52.223618 380.42257 53.433611 380.03125 54.722656 C 379.66295 55.988683 379.25962 57.253504 378.82227 58.519531 C 378.40793 59.762539 377.98228 60.970579 377.54492 62.144531 C 377.10757 63.318483 376.6921 64.366363 376.30078 65.287109 C 375.90946 64.366363 375.49595 63.318483 375.05859 62.144531 C 374.62124 60.970579 374.18345 59.762539 373.74609 58.519531 C 373.33176 57.253504 372.92843 55.988683 372.53711 54.722656 C 372.16881 53.433611 371.84654 52.223618 371.57031 51.095703 L 368.11914 51.095703 z M 394.32422 53.375 C 395.63628 53.375 396.66184 53.84725 397.39844 54.791016 C 398.15805 55.711762 398.52497 56.89748 398.50195 58.347656 L 389.59375 58.347656 C 389.66281 57.726152 389.8026 57.116064 390.00977 56.517578 C 390.23995 55.919093 390.55009 55.390061 390.94141 54.929688 C 391.33272 54.469314 391.80497 54.100443 392.35742 53.824219 C 392.93289 53.524976 393.58762 53.375 394.32422 53.375 z M 248.51367 54.652344 C 249.11216 54.652344 249.60673 54.755723 249.99805 54.962891 C 250.41238 55.170059 250.74679 55.435551 251 55.757812 C 251.27622 56.080074 251.47084 56.448945 251.58594 56.863281 C 251.72405 57.277617 251.80511 57.70327 251.82812 58.140625 L 245.02539 58.140625 C 245.09445 57.70327 245.19783 57.277617 245.33594 56.863281 C 245.49707 56.425927 245.71596 56.044918 245.99219 55.722656 C 246.26841 55.400395 246.61496 55.14704 247.0293 54.962891 C 247.44363 54.755723 247.93821 54.652344 248.51367 54.652344 z M 328.03125 60.730469 C 328.76785 60.730469 329.39007 60.775113 329.89648 60.867188 C 330.42591 60.936244 330.80497 61.029438 331.03516 61.144531 L 331.03516 66.496094 C 330.64384 66.588168 330.14927 66.657088 329.55078 66.703125 C 328.97531 66.726144 328.30844 66.738281 327.54883 66.738281 C 326.2828 66.738281 325.28152 66.519386 324.54492 66.082031 C 323.80832 65.621658 323.43945 64.814996 323.43945 63.664062 C 323.43945 63.042558 323.58943 62.547986 323.88867 62.179688 C 324.18791 61.78837 324.55483 61.488418 324.99219 61.28125 C 325.45256 61.051063 325.94713 60.90304 326.47656 60.833984 C 327.02901 60.764928 327.54786 60.730469 328.03125 60.730469 z M 359.38281 60.730469 C 360.11941 60.730469 360.74164 60.775113 361.24805 60.867188 C 361.77748 60.936244 362.15653 61.029438 362.38672 61.144531 L 362.38672 66.496094 C 361.9954 66.588168 361.50083 66.657088 360.90234 66.703125 C 360.32688 66.726144 359.65805 66.738281 358.89844 66.738281 C 357.63241 66.738281 356.63113 66.519386 355.89453 66.082031 C 355.15793 65.621658 354.79102 64.814996 354.79102 63.664062 C 354.79102 63.042558 354.94099 62.547986 355.24023 62.179688 C 355.53948 61.78837 355.9064 61.488418 356.34375 61.28125 C 356.80412 61.051063 357.2987 60.90304 357.82812 60.833984 C 358.38057 60.764928 358.89942 60.730469 359.38281 60.730469 z "
     transform="matrix(0.26458813,0,0,0.26458813,-0.00359108,0)" />
  <path
     stroke-linecap="round"
     stroke-width="2.438"
     d="m 23.493709,13.849216 h 5.360544 m -5.360544,3.572963 h 5.360544 M 30.6411,21.889298 H 21.706862 A 1.7868476,1.7868476 0 0 1 19.920747,20.10245 V 7.5952501 a 1.7868476,1.7868476 0 0 1 1.786115,-1.786848 h 4.991153 a 0.89342381,0.89342381 0 0 1 0.631041,0.261651 l 4.837241,4.8372409 a 0.89342381,0.89342381 0 0 1 0.261651,0.63104 V 20.10245 A 1.7868476,1.7868476 0 0 1 30.6411,21.889298 Z"
     fill="none"
     stroke="currentColor"
     style="stroke:#ffffff;stroke-width:5.13485;stroke-linejoin:round;stroke-miterlimit:4;stroke-dasharray:none;paint-order:stroke fill markers"
     id="path8" />
  <path
     stroke-linecap="round"
     stroke-linejoin="round"
     stroke-width="1.78685"
     d="m 23.493709,13.849216 h 5.360544 m -5.360544,3.57223 h 5.360544 M 30.6411,21.888565 H 21.706862 A 1.7868476,1.7868476 0 0 1 19.920014,20.101717 V 7.5945171 a 1.7868476,1.7868476 0 0 1 1.786115,-1.786848 h 4.991153 a 0.89342381,0.89342381 0 0 1 0.630308,0.261651 l 4.837241,4.8372409 a 0.89342381,0.89342381 0 0 1 0.262384,0.63104 v 8.564116 a 1.7868476,1.7868476 0 0 1 -1.786848,1.786848 z"
     fill="none"
     stroke="currentColor"
     id="path10" />
  <path
     style="fill:#ffffff;stroke:#ffffff;stroke-width:2.56342;stroke-linejoin:round;stroke-miterlimit:4;stroke-dasharray:none;paint-order:stroke fill markers"
     d="m 22.564231,9.8922301 v -1.490291 h 3.342441 l 1.401086,1.403802 1.401282,1.4038019 -2.709286,0.0021 c -1.490291,0.0014 -2.872955,0.04034 -3.072501,0.08668 l -0.363022,0.08436 z"
     id="path12" />
</svg>
