<svg width="475.121" height="111.266" viewBox="0 0 125.705 29.44" xmlns="http://www.w3.org/2000/svg"><text style="line-height:1.25;stroke:#fff;stroke-width:1.20972;stroke-miterlimit:4;stroke-dasharray:none;paint-order:stroke fill markers" x="27.082" y="19.467" stroke-width=".31" font-family="sans-serif" font-size="12.46" font-weight="400"><tspan x="27.082" y="19.467" style="-inkscape-font-specification:Ubuntu;stroke:#fff;stroke-width:1.20972;stroke-miterlimit:4;stroke-dasharray:none;paint-order:stroke fill markers" font-family="Ubuntu"><tspan font-weight="700" style="stroke:#fff;stroke-width:1.20972;stroke-miterlimit:4;stroke-dasharray:none;paint-order:stroke fill markers">Rich Text</tspan> Laravel</tspan></text><g style="stroke:#fff;paint-order:stroke fill markers"><path stroke-linecap="round" stroke-linejoin="round" stroke-width="2.438" d="M6.091 12.19h7.314m-7.314 4.875h7.314m2.438 6.095H3.653a2.438 2.438 0 0 1-2.437-2.438V3.657a2.438 2.438 0 0 1 2.437-2.438h6.81a1.219 1.219 0 0 1 .861.357l6.6 6.6a1.219 1.219 0 0 1 .357.861v11.685a2.438 2.438 0 0 1-2.438 2.438z" fill="none" stroke="currentColor" style="stroke:#fff;stroke-linecap:butt;paint-order:stroke fill markers" transform="matrix(1.15848 0 0 1.2076 0 0)"/></g><g style="stroke:#000;paint-order:stroke fill markers"><path stroke-linecap="round" stroke-linejoin="round" stroke-width="2.438" d="M6.091 12.19h7.314m-7.314 4.875h7.314m2.438 6.095H3.653a2.438 2.438 0 0 1-2.437-2.438V3.657a2.438 2.438 0 0 1 2.437-2.438h6.81a1.219 1.219 0 0 1 .861.357l6.6 6.6a1.219 1.219 0 0 1 .357.861v11.685a2.438 2.438 0 0 1-2.438 2.438z" fill="none" stroke="currentColor" style="stroke:#000;stroke-linecap:butt;paint-order:stroke fill markers" transform="translate(1.58 2.65)"/></g></svg>