<?xml version="1.0" encoding="UTF-8" standalone="no"?>
<svg
   width="485.03"
   height="109.404"
   viewBox="0 0 128.326 28.947"
   version="1.1"
   id="svg14"
   sodipodi:docname="rich-text-laravel-logo.svg"
   inkscape:version="1.1.1 (3bf5ae0d25, 2021-09-20)"
   xmlns:inkscape="http://www.inkscape.org/namespaces/inkscape"
   xmlns:sodipodi="http://sodipodi.sourceforge.net/DTD/sodipodi-0.dtd"
   xmlns="http://www.w3.org/2000/svg"
   xmlns:svg="http://www.w3.org/2000/svg">
  <defs
     id="defs18" />
  <sodipodi:namedview
     id="namedview16"
     pagecolor="#ffffff"
     bordercolor="#666666"
     borderopacity="1.0"
     inkscape:pageshadow="2"
     inkscape:pageopacity="0.0"
     inkscape:pagecheckerboard="0"
     showgrid="false"
     inkscape:zoom="1.5277405"
     inkscape:cx="298.80728"
     inkscape:cy="21.600526"
     inkscape:window-width="1920"
     inkscape:window-height="1016"
     inkscape:window-x="960"
     inkscape:window-y="27"
     inkscape:window-maximized="1"
     inkscape:current-layer="svg14" />
  <path
     id="text6"
     style="line-height:1.25;stroke:#ffffff;stroke-width:1.65726;stroke-linejoin:round;stroke-miterlimit:4;stroke-dasharray:none;paint-order:stroke fill markers"
     d="m 36.827016,11.919829 -0.766063,0.123315 v 3.866376 h 0.766063 v -2.056502 c 0.04799,-0.01371 0.101107,-0.02578 0.159377,-0.03606 0.0617,-0.01371 0.12689,-0.02065 0.195443,-0.02065 0.171382,0 0.287887,0.0516 0.349586,0.154434 0.06512,0.10283 0.09772,0.277586 0.09772,0.524377 v 1.434404 h 0.766063 v -1.526889 c 0,-0.185094 -0.019,-0.353202 -0.05671,-0.504019 -0.03427,-0.150818 -0.09585,-0.280908 -0.184973,-0.390593 -0.08569,-0.109686 -0.202194,-0.193885 -0.349585,-0.252155 -0.143961,-0.0617 -0.325656,-0.09249 -0.545026,-0.09249 -0.07541,0 -0.154185,0.0084 -0.23645,0.02559 -0.07884,0.01371 -0.144027,0.02939 -0.195441,0.04654 z m 31.435028,0 -0.478135,0.08202 v 3.208505 c 0,0.253647 0.06161,0.440473 0.184966,0.560441 0.123398,0.119968 0.332557,0.183351 0.627338,0.190207 l 0.06686,-0.401063 c -0.07541,-0.01028 -0.138794,-0.02235 -0.190208,-0.03607 -0.05144,-0.01713 -0.09276,-0.04098 -0.123608,-0.07184 -0.03084,-0.03085 -0.05292,-0.07219 -0.06658,-0.123605 -0.01374,-0.05142 -0.02067,-0.116314 -0.02067,-0.19515 z m -35.877259,0.05119 c -0.123397,0 -0.231446,0.04134 -0.323992,0.123606 -0.08912,0.07884 -0.133785,0.188401 -0.133785,0.328935 0,0.140534 0.04467,0.251908 0.133785,0.334171 0.09255,0.07884 0.200595,0.118371 0.323992,0.118371 0.123395,0 0.229637,-0.03954 0.318755,-0.118371 0.09255,-0.08226 0.138729,-0.193637 0.138729,-0.334171 0,-0.140534 -0.04618,-0.250099 -0.138729,-0.328935 -0.08912,-0.08226 -0.19536,-0.123606 -0.318755,-0.123606 z M 29.67012,12.30519 c -0.147389,0 -0.315497,0.0069 -0.50402,0.02065 -0.185094,0.01371 -0.364981,0.03785 -0.539792,0.07213 v 3.511555 h 0.802127 v -1.300911 h 0.395827 c 0.06856,0.08227 0.137069,0.17492 0.205621,0.27775 0.06856,0.0994 0.137069,0.205642 0.205622,0.318756 0.07198,0.113113 0.140496,0.229616 0.205621,0.349585 0.06856,0.119968 0.135551,0.238279 0.200677,0.35482 h 0.899556 c -0.0617,-0.130251 -0.128405,-0.26215 -0.200386,-0.395829 -0.07198,-0.137106 -0.147434,-0.267487 -0.22627,-0.390883 -0.07541,-0.126824 -0.152378,-0.246651 -0.231215,-0.359765 -0.07884,-0.11654 -0.154289,-0.219456 -0.226271,-0.308577 0.215943,-0.08912 0.380437,-0.210754 0.49355,-0.364999 0.11654,-0.157673 0.174793,-0.3617 0.174793,-0.611919 0,-0.401037 -0.142162,-0.695911 -0.426658,-0.884433 -0.284496,-0.191949 -0.694067,-0.287928 -1.228782,-0.287928 z m 10.395937,0.0413 v 0.683751 h 1.074641 v 2.879279 h 0.802126 v -2.879279 h 1.074348 v -0.683756 z m 12.432083,0 v 3.563034 h 2.144044 v -0.431892 h -1.64526 V 12.34649 Z m -2.812386,0.06166 -0.766062,0.123315 v 2.272595 c 0,0.17481 0.0154,0.334171 0.04624,0.478134 0.03428,0.143962 0.09253,0.267404 0.174793,0.370233 0.08226,0.0994 0.19212,0.17818 0.329226,0.236451 0.137106,0.05484 0.310055,0.08231 0.519142,0.08231 0.164529,0 0.303365,-0.01359 0.416478,-0.04101 0.113112,-0.02742 0.21603,-0.06002 0.308577,-0.09772 l -0.107901,-0.596506 c -0.07198,0.02742 -0.152565,0.04975 -0.241684,0.0669 -0.08569,0.01371 -0.16989,0.02065 -0.252155,0.02065 -0.171384,0 -0.28608,-0.04799 -0.34435,-0.143964 -0.05484,-0.09597 -0.08231,-0.224548 -0.08231,-0.385649 v -0.95133 h 0.920497 v -0.637512 h -0.920497 z m -19.969392,0.581091 c 0.257077,0 0.45055,0.03773 0.580802,0.113136 0.133677,0.07198 0.200675,0.195132 0.200675,0.369943 0,0.181667 -0.0652,0.31024 -0.195442,0.385649 -0.130251,0.07541 -0.346348,0.113135 -0.647982,0.113135 h -0.22598 v -0.966448 c 0.04113,-0.0035 0.08399,-0.0071 0.128548,-0.01047 0.04799,-0.0035 0.10111,-0.005 0.159379,-0.005 z m 5.038446,0.143964 c -0.21937,0 -0.414652,0.03773 -0.586034,0.113136 -0.171384,0.07541 -0.31716,0.178035 -0.437127,0.308286 -0.119968,0.126824 -0.212333,0.277731 -0.277458,0.452541 -0.0617,0.171383 -0.09249,0.354885 -0.09249,0.550262 0,0.202232 0.02566,0.390574 0.07707,0.565385 0.05484,0.171384 0.138751,0.320483 0.251865,0.447306 0.11654,0.126824 0.263833,0.227934 0.44207,0.303342 0.178239,0.07198 0.39072,0.108191 0.637514,0.108191 0.1611,0 0.308682,-0.01388 0.442361,-0.0413 0.133679,-0.02742 0.245052,-0.06001 0.334171,-0.09772 l -0.107901,-0.627339 c -0.08912,0.03771 -0.186905,0.06517 -0.293163,0.08231 -0.106257,0.01713 -0.20556,0.02588 -0.298107,0.02588 -0.260503,0 -0.444003,-0.067 -0.550261,-0.200676 -0.10283,-0.133679 -0.154144,-0.322021 -0.154144,-0.565385 0,-0.229654 0.05463,-0.414964 0.164324,-0.555498 0.113111,-0.140534 0.283028,-0.210565 0.509253,-0.210565 0.106258,0 0.202236,0.01026 0.287927,0.03083 0.08569,0.02056 0.16447,0.04441 0.23645,0.07184 l 0.15938,-0.611919 c -0.113114,-0.04799 -0.229618,-0.08391 -0.349586,-0.1079 -0.119968,-0.02742 -0.252157,-0.04101 -0.39612,-0.04101 z m 9.506852,0 c -0.164527,0 -0.325697,0.03078 -0.483369,0.09249 -0.154245,0.0617 -0.291275,0.152546 -0.411243,0.272513 -0.119967,0.119969 -0.217754,0.270876 -0.293162,0.452542 -0.07198,0.178238 -0.107902,0.387105 -0.107902,0.627043 0,0.198804 0.02717,0.384113 0.08202,0.555497 0.05827,0.171383 0.145794,0.320482 0.262333,0.447306 0.119969,0.123395 0.269069,0.220891 0.447307,0.292871 0.181666,0.07198 0.394149,0.108191 0.637513,0.108191 0.09598,0 0.191953,-0.0054 0.287927,-0.01571 0.09597,-0.01028 0.185015,-0.02387 0.267279,-0.04101 0.08569,-0.01371 0.162953,-0.03091 0.231506,-0.05147 0.06856,-0.02056 0.12348,-0.04109 0.164613,-0.06166 l -0.102957,-0.622099 c -0.08569,0.0377 -0.197063,0.0703 -0.33417,0.09772 -0.133679,0.02399 -0.270708,0.03606 -0.411242,0.03606 -0.21937,0 -0.394126,-0.04647 -0.524378,-0.13902 -0.130251,-0.09255 -0.204188,-0.217505 -0.221326,-0.375179 h 1.738038 c 0.0035,-0.04114 0.0067,-0.08731 0.01018,-0.138728 0.0035,-0.05484 0.0052,-0.10464 0.0052,-0.149198 0,-0.45588 -0.111373,-0.80026 -0.334171,-1.033342 -0.222798,-0.236509 -0.526128,-0.35482 -0.910027,-0.35482 z m 11.737856,0.03578 c -0.167955,0 -0.323993,0.01388 -0.467954,0.0413 -0.143964,0.02399 -0.246589,0.04965 -0.308288,0.07707 l 0.05642,0.395827 c 0.05827,-0.02399 0.145794,-0.04633 0.262335,-0.06689 0.119968,-0.024 0.258803,-0.03577 0.416476,-0.03577 0.123398,0 0.2227,0.01872 0.298108,0.05642 0.07884,0.03427 0.140412,0.08227 0.184972,0.143964 0.04456,0.05827 0.07564,0.126785 0.09278,0.205621 0.01713,0.07541 0.02559,0.152669 0.02559,0.231506 v 0.133494 c -0.01371,-0.0035 -0.03756,-0.0086 -0.07184,-0.01541 -0.03428,-0.0069 -0.07562,-0.01351 -0.123605,-0.02036 -0.04456,-0.01028 -0.09255,-0.01722 -0.143964,-0.02065 -0.05142,-0.0069 -0.100921,-0.01018 -0.148908,-0.01018 -0.150817,0 -0.294785,0.01539 -0.431891,0.04624 -0.137108,0.03085 -0.257226,0.07884 -0.360056,0.143964 -0.10283,0.06513 -0.18493,0.150842 -0.246629,0.257099 -0.05827,0.106258 -0.08754,0.233024 -0.08754,0.380414 0,0.154244 0.02566,0.286142 0.07707,0.395828 0.05142,0.109685 0.123544,0.198725 0.216091,0.267278 0.09255,0.06512 0.202111,0.113115 0.328935,0.143964 0.126824,0.03085 0.265661,0.04624 0.416478,0.04624 0.106258,0 0.212498,-0.0051 0.318756,-0.01541 0.109686,-0.0069 0.210796,-0.01531 0.303342,-0.02559 0.09255,-0.01028 0.174939,-0.02055 0.246921,-0.03083 0.07541,-0.01371 0.133661,-0.02398 0.174791,-0.03083 v -1.671135 c 0,-0.150817 -0.0172,-0.287846 -0.05147,-0.411242 -0.03428,-0.126824 -0.09253,-0.234872 -0.174793,-0.323991 -0.07884,-0.09255 -0.185076,-0.162578 -0.318757,-0.210565 -0.13025,-0.05142 -0.29142,-0.07736 -0.48337,-0.07736 z m 4.668503,0 c -0.167957,0 -0.323994,0.01388 -0.467956,0.0413 -0.143963,0.02399 -0.246589,0.04965 -0.308285,0.07707 l 0.05642,0.395827 c 0.05827,-0.02399 0.145793,-0.04633 0.262334,-0.06689 0.119967,-0.024 0.258805,-0.03577 0.416478,-0.03577 0.123395,0 0.222698,0.01872 0.298106,0.05642 0.07884,0.03427 0.140412,0.08227 0.184972,0.143964 0.04456,0.05827 0.07564,0.126785 0.09278,0.205621 0.01714,0.07541 0.02559,0.152669 0.02559,0.231506 v 0.133494 c -0.01371,-0.0035 -0.03785,-0.0086 -0.07213,-0.01541 -0.03428,-0.0069 -0.07533,-0.01351 -0.123313,-0.02036 -0.04456,-0.01028 -0.09255,-0.01722 -0.143964,-0.02065 -0.05142,-0.0069 -0.100922,-0.01018 -0.148909,-0.01018 -0.150817,0 -0.294784,0.01539 -0.431892,0.04624 -0.137106,0.03085 -0.257225,0.07884 -0.360055,0.143964 -0.10283,0.06513 -0.185221,0.150842 -0.24692,0.257099 -0.05827,0.106258 -0.08725,0.233024 -0.08725,0.380414 0,0.154244 0.02566,0.286142 0.07707,0.395828 0.05142,0.109685 0.123544,0.198725 0.21609,0.267278 0.09255,0.06512 0.202114,0.113115 0.328937,0.143964 0.126824,0.03085 0.265659,0.04624 0.416476,0.04624 0.106259,0 0.2125,-0.0051 0.318757,-0.01541 0.109685,-0.0069 0.210795,-0.01531 0.303343,-0.02559 0.09255,-0.01028 0.174939,-0.02055 0.24692,-0.03083 0.07541,-0.01371 0.133659,-0.02398 0.174792,-0.03083 v -1.671135 c 0,-0.150817 -0.01721,-0.287846 -0.05148,-0.411242 -0.03427,-0.126824 -0.09253,-0.234872 -0.174791,-0.323991 -0.07884,-0.09255 -0.185078,-0.162578 -0.318757,-0.210565 -0.130252,-0.05142 -0.291421,-0.07736 -0.483369,-0.07736 z m 5.321427,0 c -0.15424,0 -0.305146,0.02928 -0.45254,0.08754 -0.147387,0.05827 -0.277477,0.145794 -0.390593,0.262335 -0.113113,0.11654 -0.20396,0.263832 -0.272513,0.442071 -0.06856,0.174811 -0.102956,0.380354 -0.102956,0.616863 0,0.202233 0.02566,0.389058 0.07707,0.560441 0.05484,0.167956 0.137235,0.313731 0.246919,0.437127 0.109683,0.123396 0.248519,0.221182 0.416477,0.293163 0.171383,0.06856 0.373604,0.102665 0.606683,0.102665 0.185099,0 0.349586,-0.0172 0.493553,-0.05148 0.147388,-0.03428 0.250306,-0.06687 0.308574,-0.09772 l -0.06686,-0.400773 c -0.05824,0.02742 -0.145789,0.0564 -0.262332,0.08725 -0.113116,0.02742 -0.253467,0.0413 -0.421423,0.0413 -0.298208,0 -0.517628,-0.07213 -0.65816,-0.216091 -0.140533,-0.143962 -0.221123,-0.354637 -0.241685,-0.632279 h 1.83052 c 0.0035,-0.02742 0.0049,-0.05669 0.0049,-0.08754 v -0.08231 c 0,-0.459307 -0.09598,-0.800363 -0.287927,-1.023161 -0.191946,-0.226226 -0.467812,-0.339407 -0.827722,-0.339407 z m -7.182779,0.01047 c -0.209087,0 -0.397429,0.01872 -0.565386,0.05642 -0.167954,0.03428 -0.308598,0.07201 -0.421712,0.113136 v 2.560521 h 0.478134 v -2.246709 c 0.02742,-0.0069 0.08416,-0.01892 0.169848,-0.03606 0.08912,-0.02057 0.17816,-0.03083 0.267279,-0.03083 0.137107,0 0.24848,0.01026 0.334172,0.03083 0.08912,0.01713 0.152501,0.03253 0.190206,0.04624 l 0.08231,-0.416477 c -0.02056,-0.0069 -0.05316,-0.0138 -0.09772,-0.02065 -0.04113,-0.01028 -0.08731,-0.01874 -0.138728,-0.02559 -0.05142,-0.01028 -0.104536,-0.01722 -0.159379,-0.02065 -0.05142,-0.0069 -0.09789,-0.01018 -0.139019,-0.01018 z m -26.802587,0.02559 v 2.704485 h 0.766353 v -2.704485 z m 13.805119,0 c 0.150818,0.215943 0.303242,0.435364 0.457486,0.658162 0.154245,0.21937 0.308475,0.436985 0.46272,0.652927 -0.08912,0.109685 -0.179967,0.227996 -0.272513,0.354821 -0.09255,0.123396 -0.181588,0.248645 -0.267279,0.375469 -0.08226,0.123396 -0.159525,0.243224 -0.231505,0.359764 -0.07198,0.116541 -0.128426,0.21765 -0.169558,0.303342 h 0.781478 c 0.03427,-0.06856 0.07381,-0.142199 0.11837,-0.221035 l 0.143962,-0.23645 c 0.04799,-0.08226 0.09749,-0.162848 0.148908,-0.241684 0.05484,-0.07884 0.107965,-0.150966 0.159379,-0.216092 0.05484,0.06855 0.109771,0.145814 0.164614,0.231506 0.05827,0.08226 0.113197,0.166172 0.164612,0.251864 0.05142,0.08226 0.0976,0.162848 0.13873,0.241685 0.04113,0.07541 0.07553,0.138792 0.102955,0.190206 h 0.822485 c -0.0994,-0.191961 -0.233108,-0.409575 -0.401062,-0.652939 -0.167957,-0.243364 -0.354782,-0.493573 -0.560442,-0.750649 l 0.92544,-1.30091 h -0.791656 l -0.534847,0.822776 -0.534558,-0.822776 z m 16.272865,0.03083 c 0.133679,0.50044 0.289425,0.980332 0.467665,1.43964 0.181666,0.459307 0.356421,0.870684 0.524377,1.234017 h 0.431891 c 0.167957,-0.363333 0.341195,-0.77471 0.519433,-1.234017 0.181667,-0.459308 0.339222,-0.9392 0.4729,-1.43964 h -0.493549 c -0.04113,0.167956 -0.09064,0.348135 -0.148908,0.540083 -0.05484,0.188522 -0.114902,0.376864 -0.180026,0.565385 -0.06171,0.185095 -0.125082,0.364982 -0.190208,0.539793 -0.06512,0.174811 -0.126992,0.330848 -0.185263,0.467955 -0.05827,-0.137107 -0.119845,-0.293144 -0.184972,-0.467955 -0.06512,-0.174811 -0.130316,-0.354698 -0.195442,-0.539793 -0.0617,-0.188521 -0.121755,-0.376863 -0.180027,-0.565385 -0.05484,-0.191948 -0.102831,-0.372127 -0.143964,-0.540083 z m 3.902147,0.339406 c 0.195381,0 0.348094,0.07032 0.457776,0.210856 0.113116,0.137107 0.167753,0.31367 0.164326,0.529613 h -1.326504 c 0.0103,-0.09255 0.03112,-0.183394 0.06195,-0.272514 0.03427,-0.08912 0.08046,-0.167896 0.138725,-0.236449 0.05824,-0.06856 0.12859,-0.123481 0.210855,-0.164614 0.08569,-0.04456 0.183186,-0.0669 0.292874,-0.0669 z m -21.712372,0.190207 c 0.08912,0 0.162766,0.01539 0.221036,0.04624 0.0617,0.03085 0.111494,0.07039 0.149199,0.118371 0.04113,0.04799 0.07011,0.102915 0.08725,0.164613 0.02056,0.0617 0.03264,0.125081 0.03606,0.190207 h -1.012982 c 0.01028,-0.06512 0.02568,-0.128509 0.04624,-0.190207 0.02399,-0.06513 0.05659,-0.121862 0.09772,-0.169849 0.04114,-0.04799 0.09274,-0.08571 0.154435,-0.113135 0.0617,-0.03085 0.135343,-0.04624 0.221034,-0.04624 z m 11.840813,0.905082 c 0.109686,0 0.202339,0.0067 0.277747,0.02036 0.07884,0.01028 0.135282,0.02416 0.169559,0.0413 v 0.796891 c -0.05827,0.01371 -0.131916,0.02398 -0.221036,0.03083 -0.08569,0.0035 -0.184995,0.0052 -0.298106,0.0052 -0.188522,0 -0.337621,-0.0326 -0.447306,-0.09772 -0.109687,-0.06856 -0.164614,-0.188672 -0.164614,-0.360056 0,-0.09255 0.02233,-0.166192 0.0669,-0.221034 0.04456,-0.05827 0.0992,-0.102936 0.164324,-0.133785 0.06855,-0.03427 0.142198,-0.05632 0.221034,-0.0666 0.08226,-0.01028 0.159526,-0.01541 0.231506,-0.01541 z m 4.668501,0 c 0.109686,0 0.202341,0.0067 0.27775,0.02036 0.07884,0.01028 0.13528,0.02416 0.169556,0.0413 v 0.796891 c -0.05827,0.01371 -0.131916,0.02398 -0.221035,0.03083 -0.08569,0.0035 -0.185285,0.0052 -0.298397,0.0052 -0.188523,0 -0.337621,-0.0326 -0.447307,-0.09772 -0.109686,-0.06856 -0.164321,-0.188672 -0.164321,-0.360056 0,-0.09255 0.02232,-0.166192 0.06689,-0.221034 0.04456,-0.05827 0.0992,-0.102936 0.164323,-0.133785 0.06855,-0.03427 0.142201,-0.05632 0.221036,-0.0666 0.08226,-0.01028 0.159525,-0.01541 0.231505,-0.01541 z" />
  <path
     stroke-linecap="round"
     stroke-width="2.438"
     d="M 19.531985,13.219757 H 22.9385 m -3.406515,2.270545 H 22.9385 m 1.135505,2.838762 H 18.39648 A 1.1355049,1.1355049 0 0 1 17.261441,17.193559 V 9.2454913 A 1.1355049,1.1355049 0 0 1 18.39648,8.1099862 h 3.171775 A 0.56775245,0.56775245 0 0 1 21.969269,8.27626 l 3.073967,3.073967 a 0.56775245,0.56775245 0 0 1 0.166274,0.401012 v 5.44232 a 1.1355049,1.1355049 0 0 1 -1.135505,1.135505 z"
     fill="none"
     stroke="currentColor"
     style="stroke:#ffffff;stroke-width:3.26309;stroke-linejoin:round;stroke-miterlimit:4;stroke-dasharray:none;paint-order:stroke fill markers"
     id="path8" />
  <path
     stroke-linecap="round"
     stroke-linejoin="round"
     stroke-width="1.13551"
     d="M 19.531985,13.219757 H 22.9385 m -3.406515,2.270079 H 22.9385 m 1.135505,2.838762 H 18.39648 A 1.1355049,1.1355049 0 0 1 17.260975,17.193092 V 9.2450255 a 1.1355049,1.1355049 0 0 1 1.13504,-1.1355051 h 3.171775 a 0.56775245,0.56775245 0 0 1 0.400547,0.1662738 l 3.073967,3.0739668 a 0.56775245,0.56775245 0 0 1 0.16674,0.401013 v 5.442318 a 1.1355049,1.1355049 0 0 1 -1.135505,1.135506 z"
     fill="none"
     stroke="currentColor"
     id="path10" />
  <path
     style="fill:#ffffff;stroke:#ffffff;stroke-width:1.629;stroke-linejoin:round;stroke-miterlimit:4;stroke-dasharray:none;paint-order:stroke fill markers"
     d="M 18.941321,10.705175 V 9.7581256 h 2.124052 l 0.890362,0.8920864 0.890485,0.892088 -1.721695,0.0014 c -0.947049,8.86e-4 -1.825703,0.02564 -1.952511,0.05508 l -0.230693,0.05361 z"
     id="path12" />
</svg>
