<?xml version="1.0" encoding="UTF-8" standalone="no"?>
<svg
   width="485.03"
   height="109.404"
   viewBox="0 0 128.326 28.947"
   version="1.1"
   id="svg14"
   sodipodi:docname="rich-text-laravel-logo.svg"
   inkscape:version="1.1.1 (3bf5ae0d25, 2021-09-20)"
   xmlns:inkscape="http://www.inkscape.org/namespaces/inkscape"
   xmlns:sodipodi="http://sodipodi.sourceforge.net/DTD/sodipodi-0.dtd"
   xmlns="http://www.w3.org/2000/svg"
   xmlns:svg="http://www.w3.org/2000/svg">
  <defs
     id="defs18" />
  <sodipodi:namedview
     id="namedview16"
     pagecolor="#ffffff"
     bordercolor="#666666"
     borderopacity="1.0"
     inkscape:pageshadow="2"
     inkscape:pageopacity="0.0"
     inkscape:pagecheckerboard="0"
     showgrid="false"
     inkscape:zoom="1.0802757"
     inkscape:cx="132.83646"
     inkscape:cy="-2.7770688"
     inkscape:window-width="1920"
     inkscape:window-height="1016"
     inkscape:window-x="960"
     inkscape:window-y="27"
     inkscape:window-maximized="1"
     inkscape:current-layer="svg14" />
  <path
     id="text6"
     style="line-height:1.25;stroke:#ffffff;stroke-width:2.06512;stroke-linejoin:round;stroke-miterlimit:4;stroke-dasharray:none;paint-order:stroke fill markers"
     d="m 57.979555,11.881686 -0.954594,0.153664 v 4.817908 h 0.954594 v -2.562617 c 0.0598,-0.01708 0.12599,-0.03213 0.198601,-0.04494 0.07688,-0.01708 0.158118,-0.02573 0.243542,-0.02573 0.21356,0 0.358737,0.0643 0.43562,0.192441 0.08115,0.128137 0.12177,0.345901 0.12177,0.653429 v 1.787417 h 0.954594 v -1.902664 c 0,-0.230646 -0.02368,-0.440126 -0.07067,-0.62806 -0.04271,-0.187935 -0.119442,-0.350041 -0.230495,-0.48672 -0.106781,-0.136679 -0.251956,-0.2416 -0.43562,-0.314211 -0.179391,-0.07688 -0.405801,-0.115247 -0.679159,-0.115247 -0.09397,0 -0.192131,0.01053 -0.294642,0.03189 -0.09824,0.01708 -0.179472,0.03663 -0.24354,0.05799 z m 39.171328,0 -0.595806,0.102201 v 3.998132 c 0,0.316071 0.07677,0.548875 0.230487,0.698368 0.153766,0.149493 0.4144,0.228475 0.781728,0.237018 l 0.08331,-0.499767 c -0.09397,-0.01281 -0.172952,-0.02785 -0.237019,-0.04494 -0.0641,-0.02135 -0.115584,-0.05107 -0.154028,-0.08952 -0.03843,-0.03844 -0.06594,-0.08996 -0.08297,-0.154025 -0.01712,-0.06407 -0.02576,-0.14494 -0.02576,-0.243178 z m -44.706812,0.06379 c -0.153765,0 -0.288405,0.05152 -0.403727,0.154025 -0.111053,0.09824 -0.16671,0.234768 -0.16671,0.409888 0,0.17512 0.05566,0.313903 0.16671,0.416412 0.115322,0.09824 0.249962,0.147502 0.403727,0.147502 0.153764,0 0.286152,-0.04927 0.397203,-0.147502 0.115324,-0.102509 0.17287,-0.241292 0.17287,-0.416412 0,-0.17512 -0.05754,-0.31165 -0.17287,-0.409888 -0.111051,-0.10251 -0.243439,-0.154025 -0.397203,-0.154025 z m -3.382756,0.416412 c -0.183662,0 -0.393142,0.0086 -0.628061,0.02573 -0.230647,0.01708 -0.454805,0.04717 -0.672637,0.08988 v 4.375765 h 0.999533 v -1.621071 h 0.493242 c 0.08543,0.10251 0.170802,0.217968 0.256226,0.346105 0.08543,0.123865 0.170802,0.256252 0.256226,0.397203 0.0897,0.140951 0.175073,0.286126 0.256225,0.43562 0.08543,0.149492 0.168911,0.296921 0.250065,0.442143 h 1.12094 c -0.07688,-0.162307 -0.160006,-0.326666 -0.249701,-0.493244 -0.0897,-0.170849 -0.183718,-0.333317 -0.281957,-0.487082 -0.09397,-0.158035 -0.189878,-0.307353 -0.288117,-0.448304 -0.09824,-0.145221 -0.192261,-0.273466 -0.281958,-0.384519 0.269088,-0.111051 0.474064,-0.262622 0.615015,-0.454827 0.145221,-0.196477 0.21781,-0.450716 0.21781,-0.762515 0,-0.499734 -0.177148,-0.867178 -0.53166,-1.102096 -0.354512,-0.239189 -0.86488,-0.358788 -1.531191,-0.358788 z m 12.954424,0.05147 v 0.852025 h 1.339114 v 3.587882 h 0.999533 v -3.587882 h 1.33875 v -0.852031 z m 15.491673,0 v 4.439912 h 2.671703 v -0.538182 h -2.050166 v -3.90173 z m -3.504527,0.07683 -0.954593,0.153663 v 2.83189 c 0,0.217832 0.01919,0.416413 0.05762,0.595805 0.04271,0.179392 0.1153,0.333214 0.217811,0.46135 0.102509,0.123866 0.239401,0.222031 0.41025,0.294642 0.170848,0.06834 0.38636,0.102563 0.646905,0.102563 0.20502,0 0.378024,-0.01693 0.518975,-0.0511 0.140949,-0.03417 0.269196,-0.07479 0.384519,-0.121771 l -0.134456,-0.743308 c -0.0897,0.03417 -0.190112,0.062 -0.301163,0.08336 -0.106781,0.01708 -0.211701,0.02573 -0.314212,0.02573 -0.213562,0 -0.356485,-0.0598 -0.429096,-0.179394 -0.06834,-0.119594 -0.102564,-0.279811 -0.102564,-0.480559 v -1.18545 h 1.147035 v -0.794407 h -1.147035 z m -24.883947,0.7241 c 0.320344,0 0.561432,0.04701 0.723739,0.140979 0.166576,0.0897 0.250062,0.243155 0.250062,0.460988 0,0.226375 -0.08124,0.386591 -0.24354,0.480558 -0.162307,0.09397 -0.431586,0.140979 -0.807454,0.140979 H 48.76015 v -1.204296 c 0.05125,-0.0043 0.104661,-0.0088 0.160185,-0.01305 0.0598,-0.0043 0.125993,-0.0062 0.198603,-0.0062 z m 6.278429,0.179394 c -0.273358,0 -0.516699,0.04701 -0.730259,0.140979 -0.213563,0.09397 -0.395214,0.22185 -0.544706,0.384157 -0.149493,0.158035 -0.264589,0.346081 -0.345741,0.563913 -0.07688,0.213561 -0.115248,0.442224 -0.115248,0.685684 0,0.252002 0.03197,0.486696 0.09604,0.704529 0.06834,0.213562 0.172898,0.399355 0.31385,0.55739 0.145221,0.158036 0.328763,0.284029 0.550866,0.377996 0.222104,0.0897 0.486878,0.134817 0.794408,0.134817 0.200748,0 0.38465,-0.01729 0.551228,-0.05147 0.166579,-0.03417 0.305361,-0.07478 0.416412,-0.12177 l -0.134455,-0.78173 c -0.111051,0.04699 -0.232904,0.08121 -0.365312,0.102563 -0.132408,0.02135 -0.256149,0.03225 -0.371472,0.03225 -0.324614,0 -0.553275,-0.08349 -0.685683,-0.250064 -0.128137,-0.166578 -0.19208,-0.401272 -0.19208,-0.704529 0,-0.286173 0.06808,-0.517088 0.204765,-0.692208 0.140948,-0.17512 0.352682,-0.262386 0.634583,-0.262386 0.132408,0 0.252007,0.01279 0.358787,0.03842 0.106782,0.02562 0.204946,0.05534 0.294641,0.08952 l 0.198604,-0.762515 c -0.140952,-0.0598 -0.286128,-0.104556 -0.435621,-0.134455 -0.149492,-0.03417 -0.314213,-0.0511 -0.493606,-0.0511 z m 11.846531,0 c -0.205018,0 -0.405852,0.03836 -0.602328,0.115247 -0.192206,0.07688 -0.362959,0.190088 -0.512452,0.33958 -0.149492,0.149494 -0.271344,0.337539 -0.365311,0.563914 -0.0897,0.222104 -0.134456,0.482374 -0.134456,0.781361 0,0.247731 0.03386,0.478645 0.102201,0.692207 0.07261,0.213562 0.181675,0.399355 0.326895,0.55739 0.149493,0.153764 0.335288,0.275254 0.557391,0.364949 0.226375,0.0897 0.49115,0.134817 0.794408,0.134817 0.119594,0 0.239193,-0.0067 0.358787,-0.01957 0.119594,-0.01281 0.230547,-0.02975 0.333057,-0.0511 0.106781,-0.01708 0.203057,-0.03852 0.288481,-0.06414 0.08543,-0.02562 0.153869,-0.0512 0.205125,-0.07684 l -0.128295,-0.7752 c -0.106779,0.04698 -0.245561,0.0876 -0.416411,0.121771 -0.166578,0.0299 -0.33733,0.04494 -0.512451,0.04494 -0.273358,0 -0.491122,-0.05791 -0.653429,-0.173233 -0.162307,-0.115323 -0.25444,-0.271034 -0.275796,-0.467512 h 2.165777 c 0.0043,-0.05126 0.0084,-0.108802 0.01268,-0.17287 0.0043,-0.06834 0.0065,-0.130392 0.0065,-0.185917 0,-0.568074 -0.138782,-0.997207 -0.416412,-1.287651 -0.277629,-0.294715 -0.65561,-0.442143 -1.133988,-0.442143 z m 14.626594,0.04458 c -0.209289,0 -0.403729,0.01729 -0.583119,0.05146 -0.179394,0.02989 -0.307276,0.06187 -0.384159,0.09604 l 0.07031,0.493242 c 0.07261,-0.0299 0.181674,-0.05773 0.326897,-0.08335 0.149492,-0.0299 0.322496,-0.04457 0.518973,-0.04457 0.153766,0 0.277507,0.02333 0.371473,0.07031 0.09824,0.04271 0.174968,0.102512 0.230494,0.179394 0.05553,0.07261 0.09425,0.157988 0.11561,0.256226 0.02135,0.09397 0.03189,0.190242 0.03189,0.28848 v 0.166348 c -0.01708,-0.0043 -0.0468,-0.01066 -0.08952,-0.0192 -0.04271,-0.0086 -0.09423,-0.01683 -0.154024,-0.02537 -0.05553,-0.01281 -0.115325,-0.02146 -0.179394,-0.02573 -0.06407,-0.0086 -0.125758,-0.01268 -0.185555,-0.01268 -0.187934,0 -0.367333,0.01918 -0.538182,0.05762 -0.17085,0.03844 -0.32053,0.09824 -0.448667,0.179395 -0.128137,0.08116 -0.230442,0.187964 -0.307325,0.320372 -0.07261,0.132408 -0.109086,0.290372 -0.109086,0.474035 0,0.192205 0.03197,0.356563 0.09604,0.493243 0.06407,0.13668 0.153949,0.247633 0.269272,0.333057 0.115322,0.08115 0.251852,0.140953 0.409888,0.179394 0.158035,0.03844 0.331041,0.05762 0.518975,0.05762 0.132408,0 0.264794,-0.0064 0.397203,-0.0192 0.13668,-0.0086 0.262673,-0.01908 0.377996,-0.03189 0.115324,-0.01281 0.217992,-0.02561 0.307689,-0.03842 0.09397,-0.01708 0.166555,-0.02988 0.217808,-0.03842 v -2.082421 c 0,-0.187934 -0.02143,-0.358686 -0.06414,-0.512451 -0.04272,-0.158036 -0.115301,-0.292675 -0.21781,-0.403727 -0.09824,-0.115323 -0.230624,-0.202589 -0.397204,-0.262386 -0.162306,-0.06407 -0.36314,-0.0964 -0.60233,-0.0964 z m 5.817443,0 c -0.209292,0 -0.403731,0.01729 -0.583122,0.05146 -0.179393,0.02989 -0.307276,0.06187 -0.384156,0.09604 l 0.07031,0.493242 c 0.07261,-0.0299 0.181674,-0.05773 0.326896,-0.08335 0.149492,-0.0299 0.322498,-0.04457 0.518975,-0.04457 0.153763,0 0.277505,0.02333 0.371472,0.07031 0.09824,0.04271 0.174967,0.102512 0.230494,0.179394 0.05553,0.07261 0.09425,0.157988 0.115609,0.256226 0.02136,0.09397 0.03189,0.190242 0.03189,0.28848 v 0.166348 c -0.01708,-0.0043 -0.04717,-0.01066 -0.08988,-0.0192 -0.04272,-0.0086 -0.09387,-0.01683 -0.153662,-0.02537 -0.05553,-0.01281 -0.115327,-0.02146 -0.179394,-0.02573 -0.06407,-0.0086 -0.125759,-0.01268 -0.185556,-0.01268 -0.187934,0 -0.367332,0.01918 -0.538182,0.05762 -0.170849,0.03844 -0.32053,0.09824 -0.448666,0.179395 -0.128137,0.08116 -0.230805,0.187964 -0.307688,0.320372 -0.07261,0.132408 -0.108724,0.290372 -0.108724,0.474035 0,0.192205 0.03197,0.356563 0.09604,0.493243 0.06407,0.13668 0.153949,0.247633 0.269271,0.333057 0.115325,0.08115 0.251855,0.140953 0.40989,0.179394 0.158036,0.03844 0.331039,0.05762 0.518973,0.05762 0.132409,0 0.264797,-0.0064 0.397204,-0.0192 0.136679,-0.0086 0.262673,-0.01908 0.377997,-0.03189 0.115323,-0.01281 0.217992,-0.02561 0.307688,-0.03842 0.09397,-0.01708 0.166553,-0.02988 0.217809,-0.03842 v -2.082421 c 0,-0.187934 -0.02144,-0.358686 -0.06415,-0.512451 -0.04271,-0.158036 -0.1153,-0.292675 -0.217808,-0.403727 -0.09824,-0.115323 -0.230627,-0.202589 -0.397205,-0.262386 -0.162307,-0.06407 -0.36314,-0.0964 -0.602328,-0.0964 z m 6.631054,0 c -0.1922,0 -0.380244,0.03648 -0.563912,0.109086 -0.18366,0.07261 -0.345766,0.181674 -0.48672,0.326896 -0.140951,0.145222 -0.254156,0.328763 -0.33958,0.550867 -0.08543,0.217833 -0.128294,0.473961 -0.128294,0.768676 0,0.252003 0.03197,0.484807 0.09604,0.698368 0.06834,0.209291 0.171009,0.390942 0.307687,0.544706 0.136676,0.153764 0.309681,0.275616 0.518973,0.365312 0.213562,0.08543 0.46555,0.127931 0.755991,0.127931 0.230653,0 0.435621,-0.02143 0.615019,-0.06415 0.18366,-0.04271 0.311907,-0.08333 0.384515,-0.121769 l -0.08331,-0.499405 c -0.07257,0.03417 -0.181668,0.07028 -0.326893,0.108724 -0.140954,0.03417 -0.315846,0.05147 -0.525137,0.05147 -0.371598,0 -0.645018,-0.08988 -0.820136,-0.269272 -0.175119,-0.179392 -0.275542,-0.441915 -0.301165,-0.787885 h 2.28102 c 0.0044,-0.03417 0.0061,-0.07064 0.0061,-0.109085 V 15.13616 c 0,-0.572345 -0.119601,-0.997336 -0.358787,-1.274966 -0.239185,-0.281901 -0.582942,-0.422936 -1.031428,-0.422936 z m -8.950493,0.01305 c -0.260545,0 -0.495238,0.02333 -0.70453,0.07031 -0.209289,0.04272 -0.384546,0.08973 -0.525498,0.140979 v 3.190677 h 0.595806 v -2.799634 c 0.03417,-0.0086 0.104869,-0.02358 0.211648,-0.04494 0.111054,-0.02563 0.222006,-0.03842 0.333057,-0.03842 0.17085,0 0.309632,0.01279 0.416413,0.03842 0.111052,0.02135 0.190033,0.04054 0.237017,0.05762 l 0.102562,-0.518974 c -0.02562,-0.0086 -0.06624,-0.01719 -0.121771,-0.02573 -0.05125,-0.01281 -0.108802,-0.02335 -0.172869,-0.03189 -0.06407,-0.01281 -0.130263,-0.02146 -0.198603,-0.02573 -0.06407,-0.0086 -0.121977,-0.01268 -0.173232,-0.01268 z m -33.398823,0.03189 v 3.370071 h 0.954956 v -3.370071 z m 17.20262,0 c 0.187935,0.269088 0.377871,0.542509 0.570076,0.820139 0.192205,0.273358 0.384392,0.544528 0.576597,0.813615 -0.111053,0.136679 -0.224258,0.284107 -0.33958,0.442144 -0.115322,0.153764 -0.226277,0.309838 -0.333057,0.467873 -0.10251,0.153765 -0.198785,0.303083 -0.28848,0.448304 -0.0897,0.145222 -0.160032,0.271215 -0.211286,0.377996 h 0.973802 c 0.04271,-0.08543 0.09197,-0.177195 0.147502,-0.275433 l 0.179392,-0.294641 c 0.0598,-0.10251 0.121487,-0.202926 0.185555,-0.301164 0.06834,-0.09824 0.134535,-0.188119 0.198603,-0.269273 0.06834,0.08542 0.136786,0.181699 0.205126,0.28848 0.07261,0.10251 0.141055,0.207068 0.205123,0.313849 0.06407,0.10251 0.121617,0.202926 0.172873,0.301165 0.05125,0.09397 0.09412,0.172949 0.128292,0.237017 h 1.024903 C 72.443869,16.614069 72.277256,16.3429 72.067968,16.039642 71.858676,15.736385 71.625873,15.424599 71.369599,15.104256 l 1.153195,-1.62107 h -0.986486 l -0.666475,1.025264 -0.666115,-1.025264 z m 20.277689,0.03842 c 0.166579,0.6236 0.360654,1.221596 0.58276,1.793941 0.226375,0.572345 0.444138,1.084964 0.653428,1.537715 h 0.538182 c 0.209292,-0.452751 0.425164,-0.96537 0.647268,-1.537715 0.226376,-0.572345 0.422706,-1.170341 0.589282,-1.793941 h -0.615013 c -0.05125,0.209291 -0.112943,0.433812 -0.185555,0.673 -0.06834,0.234918 -0.14318,0.469612 -0.224332,0.704529 -0.07689,0.230647 -0.155865,0.454805 -0.237019,0.672638 -0.08115,0.217832 -0.158245,0.412271 -0.230857,0.583121 -0.07261,-0.17085 -0.149339,-0.365289 -0.230494,-0.583121 -0.08115,-0.217833 -0.162387,-0.441991 -0.243541,-0.672638 -0.07688,-0.234917 -0.15172,-0.469611 -0.224332,-0.704529 -0.06834,-0.239188 -0.128139,-0.463709 -0.179395,-0.673 z m 4.862483,0.422935 c 0.243465,0 0.433762,0.08763 0.570437,0.262749 0.140954,0.170849 0.209038,0.390865 0.204767,0.659953 h -1.652962 c 0.01284,-0.115323 0.03878,-0.228528 0.0772,-0.339581 0.0427,-0.111051 0.100257,-0.209216 0.172865,-0.29464 0.07257,-0.08543 0.160237,-0.153871 0.262748,-0.205126 0.106781,-0.05553 0.228269,-0.08336 0.364952,-0.08336 z m -27.055883,0.237018 c 0.111053,0 0.202823,0.01918 0.275434,0.05762 0.07688,0.03844 0.138933,0.08771 0.185917,0.147502 0.05125,0.0598 0.08737,0.128243 0.108724,0.205125 0.02562,0.07688 0.04067,0.155864 0.04494,0.237018 h -1.262281 c 0.01281,-0.08115 0.032,-0.160136 0.05762,-0.237018 0.02989,-0.08116 0.07051,-0.151852 0.121769,-0.211649 0.05126,-0.0598 0.115559,-0.106808 0.192442,-0.140978 0.07688,-0.03844 0.168652,-0.05762 0.275431,-0.05762 z m 14.75489,1.127827 c 0.13668,0 0.252135,0.0083 0.346102,0.02537 0.09824,0.01281 0.168575,0.0301 0.211288,0.05147 v 0.993009 c -0.07261,0.01708 -0.164382,0.02988 -0.275434,0.03842 -0.106781,0.0043 -0.230523,0.0065 -0.371472,0.0065 -0.234918,0 -0.420711,-0.04062 -0.55739,-0.12177 -0.136681,-0.08543 -0.205126,-0.235105 -0.205126,-0.448667 0,-0.115323 0.02783,-0.207093 0.08336,-0.275432 0.05553,-0.07261 0.123609,-0.128269 0.204764,-0.16671 0.08542,-0.04271 0.177194,-0.07018 0.275432,-0.08299 0.10251,-0.01281 0.198786,-0.0192 0.288481,-0.0192 z m 5.81744,0 c 0.13668,0 0.252138,0.0083 0.346105,0.02537 0.09824,0.01281 0.168573,0.0301 0.211285,0.05147 v 0.993009 c -0.07261,0.01708 -0.164381,0.02988 -0.275433,0.03842 -0.10678,0.0043 -0.230885,0.0065 -0.371834,0.0065 -0.234919,0 -0.420711,-0.04062 -0.557391,-0.12177 -0.13668,-0.08543 -0.204762,-0.235105 -0.204762,-0.448667 0,-0.115323 0.02782,-0.207093 0.08335,-0.275432 0.05553,-0.07261 0.123612,-0.128269 0.204764,-0.16671 0.08542,-0.04271 0.177197,-0.07018 0.275433,-0.08299 0.10251,-0.01281 0.198785,-0.0192 0.28848,-0.0192 z" />
  <path
     stroke-linecap="round"
     stroke-width="2.438"
     d="m 35.684671,12.916518 h 4.229121 m -4.229121,2.818836 h 4.229121 m 1.409706,3.524267 H 34.274964 A 1.4097068,1.4097068 0 0 1 32.865836,17.849914 V 7.9825452 a 1.4097068,1.4097068 0 0 1 1.409128,-1.409707 h 3.937696 a 0.70485339,0.70485339 0 0 1 0.497851,0.2064256 l 3.816269,3.8162692 a 0.70485339,0.70485339 0 0 1 0.206425,0.497849 v 6.756532 a 1.4097068,1.4097068 0 0 1 -1.409707,1.409707 z"
     fill="none"
     stroke="currentColor"
     style="stroke:#ffffff;stroke-width:4.05106;stroke-linejoin:round;stroke-miterlimit:4;stroke-dasharray:none;paint-order:stroke fill markers"
     id="path8" />
  <path
     stroke-linecap="round"
     stroke-linejoin="round"
     stroke-width="1.40971"
     d="m 35.684671,12.916518 h 4.229121 m -4.229121,2.818258 h 4.229121 m 1.409706,3.524266 H 34.274964 A 1.4097068,1.4097068 0 0 1 32.865257,17.849335 V 7.981967 a 1.4097068,1.4097068 0 0 1 1.409129,-1.4097071 h 3.937696 a 0.70485339,0.70485339 0 0 1 0.497272,0.2064256 l 3.816269,3.8162695 a 0.70485339,0.70485339 0 0 1 0.207004,0.497849 v 6.756531 a 1.4097068,1.4097068 0 0 1 -1.409707,1.409707 z"
     fill="none"
     stroke="currentColor"
     id="path10" />
  <path
     style="fill:#ffffff;stroke:#ffffff;stroke-width:2.02237;stroke-linejoin:round;stroke-miterlimit:4;stroke-dasharray:none;paint-order:stroke fill markers"
     d="M 34.951373,9.7947134 V 8.6189705 h 2.636969 l 1.105366,1.1075086 1.10552,1.1075089 -2.13745,0.0017 c -1.175743,0.0011 -2.266575,0.03183 -2.424004,0.06838 l -0.286401,0.06655 z"
     id="path12" />
</svg>
