<?xml version="1.0" encoding="UTF-8" standalone="no"?>
<svg
   width="485.03"
   height="109.404"
   viewBox="0 0 128.326 28.947"
   version="1.1"
   id="svg14"
   sodipodi:docname="rich-text-laravel-logo.svg"
   inkscape:version="1.1.1 (3bf5ae0d25, 2021-09-20)"
   xmlns:inkscape="http://www.inkscape.org/namespaces/inkscape"
   xmlns:sodipodi="http://sodipodi.sourceforge.net/DTD/sodipodi-0.dtd"
   xmlns="http://www.w3.org/2000/svg"
   xmlns:svg="http://www.w3.org/2000/svg">
  <defs
     id="defs18" />
  <sodipodi:namedview
     id="namedview16"
     pagecolor="#ffffff"
     bordercolor="#666666"
     borderopacity="1.0"
     inkscape:pageshadow="2"
     inkscape:pageopacity="0.0"
     inkscape:pagecheckerboard="0"
     showgrid="false"
     inkscape:zoom="1.5277405"
     inkscape:cx="194.07746"
     inkscape:cy="21.600526"
     inkscape:window-width="1920"
     inkscape:window-height="1016"
     inkscape:window-x="960"
     inkscape:window-y="27"
     inkscape:window-maximized="1"
     inkscape:current-layer="svg14" />
  <path
     id="text6"
     style="line-height:1.25;stroke:#ffffff;stroke-width:1.98843;stroke-linejoin:round;stroke-miterlimit:4;stroke-dasharray:none;paint-order:stroke fill markers"
     d="m 53.497911,12.195457 -0.919143,0.147956 v 4.638982 h 0.919143 v -2.467446 c 0.05758,-0.01645 0.121311,-0.03093 0.191225,-0.04327 0.07403,-0.01645 0.152246,-0.02478 0.234497,-0.02478 0.205629,0 0.345415,0.06191 0.419443,0.185294 0.07813,0.123378 0.117247,0.333055 0.117247,0.629161 v 1.721037 h 0.919143 v -1.832003 c 0,-0.22208 -0.0228,-0.423781 -0.06804,-0.604735 -0.04112,-0.180956 -0.115003,-0.337041 -0.221936,-0.468644 -0.102813,-0.131604 -0.242597,-0.232629 -0.419441,-0.302542 -0.172728,-0.07403 -0.390731,-0.110972 -0.653937,-0.110972 -0.09048,0 -0.184995,0.01008 -0.283699,0.0307 -0.09459,0.01645 -0.172808,0.03526 -0.234495,0.05584 z m 37.716592,0 -0.573679,0.09841 v 3.84965 c 0,0.304333 0.07392,0.528492 0.221927,0.672432 0.148056,0.143941 0.399011,0.21999 0.752697,0.228216 l 0.08022,-0.481206 c -0.09048,-0.01234 -0.166528,-0.02682 -0.228216,-0.04328 -0.06172,-0.02055 -0.111296,-0.04917 -0.148309,-0.0862 -0.037,-0.03701 -0.06349,-0.08661 -0.07988,-0.148304 -0.01649,-0.0617 -0.0248,-0.139557 -0.0248,-0.234147 z m -43.0465,0.06142 c -0.148056,0 -0.277696,0.0496 -0.388735,0.148306 -0.106928,0.09459 -0.160519,0.226048 -0.160519,0.394665 0,0.168616 0.0536,0.302246 0.160519,0.400947 0.111044,0.09459 0.240679,0.142025 0.388735,0.142025 0.148052,0 0.275524,-0.04744 0.38245,-0.142025 0.111044,-0.0987 0.166451,-0.232331 0.166451,-0.400947 0,-0.168617 -0.05541,-0.300076 -0.166451,-0.394665 -0.106928,-0.0987 -0.234398,-0.148306 -0.38245,-0.148306 z m -3.257129,0.400947 c -0.176841,0 -0.378541,0.0083 -0.604736,0.02478 -0.222081,0.01645 -0.437914,0.04541 -0.647657,0.08654 v 4.213258 h 0.962413 v -1.560868 h 0.474924 c 0.08226,0.09871 0.164459,0.209874 0.24671,0.333252 0.08226,0.119263 0.164459,0.246735 0.246711,0.382452 0.08636,0.135716 0.16857,0.2755 0.246709,0.419442 0.08226,0.143941 0.162638,0.285893 0.240778,0.425722 h 1.079311 c -0.07403,-0.156278 -0.154063,-0.314534 -0.240428,-0.474926 -0.08636,-0.164503 -0.176895,-0.320938 -0.271485,-0.468992 -0.09048,-0.152167 -0.182827,-0.295938 -0.277418,-0.431656 -0.09459,-0.139827 -0.18512,-0.263309 -0.271486,-0.370239 0.259094,-0.106928 0.456458,-0.252868 0.592175,-0.437935 0.139827,-0.189181 0.209721,-0.433978 0.209721,-0.734197 0,-0.481175 -0.17057,-0.834973 -0.511916,-1.061167 -0.341346,-0.230305 -0.83276,-0.345463 -1.474326,-0.345463 z m 12.473325,0.04955 v 0.820383 h 1.289383 v 3.454636 h 0.962413 v -3.454636 h 1.289031 v -0.820389 z m 14.916348,0 v 4.275024 h 2.572482 v -0.518196 h -1.974028 v -3.756828 z m -3.374377,0.07398 -0.919141,0.147957 v 2.726721 c 0,0.209741 0.01848,0.400947 0.05548,0.573678 0.04113,0.172729 0.11102,0.320838 0.209721,0.444215 0.0987,0.119263 0.230511,0.213785 0.395014,0.2837 0.164504,0.0658 0.372013,0.09876 0.622881,0.09876 0.197406,0 0.363985,-0.01631 0.499701,-0.04921 0.135715,-0.0329 0.259199,-0.07201 0.370239,-0.117247 L 70.030603,16.17423 c -0.08636,0.0329 -0.183052,0.05969 -0.289979,0.08027 -0.102813,0.01645 -0.203839,0.02478 -0.302543,0.02478 -0.205631,0 -0.343246,-0.05758 -0.41316,-0.172732 -0.0658,-0.115147 -0.09876,-0.269418 -0.09876,-0.462712 v -1.141431 h 1.104437 v -0.764909 h -1.104435 z m -23.959813,0.697209 c 0.308448,0 0.540582,0.04527 0.696862,0.135744 0.160389,0.08636 0.240775,0.234124 0.240775,0.443867 0,0.217969 -0.07823,0.372235 -0.234497,0.462712 -0.156278,0.09048 -0.415557,0.135743 -0.777466,0.135743 h -0.271137 v -1.159571 c 0.04935,-0.0042 0.100774,-0.0085 0.154236,-0.01256 0.05758,-0.0042 0.121314,-0.006 0.191227,-0.006 z m 6.045263,0.172732 c -0.263206,0 -0.497511,0.04527 -0.70314,0.135744 -0.205631,0.09048 -0.380537,0.213611 -0.524476,0.369889 -0.143941,0.152167 -0.254763,0.333229 -0.332902,0.542971 -0.07403,0.20563 -0.110972,0.425801 -0.110972,0.660219 0,0.242644 0.03079,0.468622 0.09247,0.678365 0.0658,0.205631 0.166477,0.384524 0.302194,0.536689 0.139828,0.152167 0.316554,0.273482 0.530408,0.363958 0.213856,0.08636 0.468796,0.129811 0.764906,0.129811 0.193292,0 0.370365,-0.01665 0.530757,-0.04955 0.160391,-0.0329 0.29402,-0.072 0.400947,-0.117247 L 51.83235,16.149445 c -0.106929,0.04525 -0.224254,0.07819 -0.351745,0.09876 -0.12749,0.02055 -0.246637,0.03105 -0.357677,0.03105 -0.312559,0 -0.532727,-0.08039 -0.660218,-0.240777 -0.123378,-0.160391 -0.184946,-0.386369 -0.184946,-0.678364 0,-0.275545 0.06555,-0.497885 0.19716,-0.666501 0.135714,-0.168617 0.339585,-0.252642 0.611016,-0.252642 0.127491,0 0.242648,0.01231 0.345462,0.03699 0.102813,0.02467 0.197336,0.05328 0.283699,0.0862 l 0.191229,-0.734196 c -0.135717,-0.05758 -0.275502,-0.100678 -0.419443,-0.129462 -0.143941,-0.0329 -0.302545,-0.04921 -0.475275,-0.04921 z m 11.406577,0 c -0.197404,0 -0.39078,0.03693 -0.57996,0.110972 -0.185067,0.07403 -0.349479,0.183029 -0.49342,0.326968 -0.14394,0.143942 -0.261267,0.325005 -0.351744,0.542972 -0.08636,0.213855 -0.129463,0.464459 -0.129463,0.752343 0,0.238531 0.0326,0.46087 0.09841,0.666501 0.06991,0.20563 0.174928,0.384523 0.314755,0.536689 0.143942,0.148053 0.322836,0.265031 0.536691,0.351395 0.217967,0.08636 0.47291,0.12981 0.764905,0.12981 0.115159,0 0.23031,-0.0065 0.345462,-0.01885 0.115148,-0.01233 0.221986,-0.02864 0.320689,-0.04921 0.102813,-0.01645 0.195515,-0.03709 0.277767,-0.06176 0.08226,-0.02467 0.148155,-0.0493 0.197507,-0.07398 l -0.12353,-0.746411 c -0.102814,0.04523 -0.236442,0.08435 -0.400947,0.117247 -0.160391,0.02878 -0.324802,0.04327 -0.493419,0.04327 -0.263206,0 -0.472883,-0.05576 -0.629163,-0.1668 -0.156278,-0.111044 -0.24499,-0.260969 -0.265552,-0.45015 h 2.085344 c 0.0042,-0.04936 0.008,-0.104757 0.01221,-0.16645 0.0042,-0.0658 0.0062,-0.12555 0.0062,-0.179012 0,-0.546977 -0.133629,-0.960173 -0.400948,-1.239831 -0.267319,-0.28377 -0.631262,-0.425723 -1.091875,-0.425723 z m 14.083395,0.04293 c -0.201517,0 -0.388736,0.01665 -0.561464,0.04955 -0.172732,0.02878 -0.295864,0.05957 -0.369892,0.09247 l 0.06769,0.474924 c 0.06991,-0.02878 0.174928,-0.05559 0.314757,-0.08026 0.143941,-0.0288 0.310519,-0.04292 0.499699,-0.04292 0.148056,0 0.267201,0.02246 0.357678,0.06769 0.09459,0.04112 0.16847,0.09871 0.221934,0.172732 0.05347,0.06991 0.09076,0.15212 0.11132,0.24671 0.02055,0.09048 0.0307,0.183176 0.0307,0.277767 v 0.160169 c -0.01645,-0.0042 -0.04507,-0.01032 -0.0862,-0.01849 -0.04113,-0.0083 -0.09073,-0.01621 -0.148304,-0.02443 -0.05347,-0.01234 -0.111044,-0.02066 -0.172732,-0.02478 -0.0617,-0.0083 -0.121088,-0.01221 -0.178664,-0.01221 -0.180954,0 -0.353691,0.01846 -0.518195,0.05548 -0.164505,0.03702 -0.308626,0.09459 -0.432004,0.172732 -0.123379,0.07814 -0.221884,0.180984 -0.295913,0.308474 -0.06991,0.127491 -0.105032,0.279589 -0.105032,0.456431 0,0.185066 0.03079,0.343321 0.09247,0.474925 0.0617,0.131603 0.148232,0.238436 0.259272,0.320687 0.111044,0.07813 0.242498,0.135719 0.394665,0.172732 0.152167,0.03702 0.318747,0.05548 0.499702,0.05548 0.127491,0 0.25496,-0.0061 0.382452,-0.01849 0.131604,-0.0083 0.252918,-0.01837 0.363958,-0.0307 0.111044,-0.01233 0.209896,-0.02466 0.296262,-0.03699 0.09048,-0.01645 0.16037,-0.02877 0.209719,-0.03699 v -2.005073 c 0,-0.180954 -0.02064,-0.345365 -0.06176,-0.493419 -0.04113,-0.152167 -0.11102,-0.281806 -0.209721,-0.388733 -0.09459,-0.111044 -0.22206,-0.195065 -0.382454,-0.252641 -0.156277,-0.0617 -0.349653,-0.09282 -0.57996,-0.09282 z m 5.601395,0 c -0.201519,0 -0.388736,0.01665 -0.561466,0.04955 -0.17273,0.02878 -0.295864,0.05957 -0.369888,0.09247 l 0.06769,0.474924 c 0.06991,-0.02878 0.174926,-0.05559 0.314755,-0.08026 0.14394,-0.0288 0.310521,-0.04292 0.499702,-0.04292 0.148052,0 0.267199,0.02246 0.357675,0.06769 0.09459,0.04112 0.16847,0.09871 0.221935,0.172732 0.05346,0.06991 0.09076,0.15212 0.11132,0.24671 0.02057,0.09048 0.0307,0.183176 0.0307,0.277767 v 0.160169 c -0.01645,-0.0042 -0.04541,-0.01032 -0.08654,-0.01849 -0.04113,-0.0083 -0.09038,-0.01621 -0.147955,-0.02443 -0.05346,-0.01234 -0.111043,-0.02066 -0.172731,-0.02478 -0.0617,-0.0083 -0.121089,-0.01221 -0.178665,-0.01221 -0.180955,0 -0.35369,0.01846 -0.518196,0.05548 -0.164504,0.03702 -0.308626,0.09459 -0.432004,0.172732 -0.123378,0.07814 -0.222233,0.180984 -0.296261,0.308474 -0.06991,0.127491 -0.104685,0.279589 -0.104685,0.456431 0,0.185066 0.03079,0.343321 0.09247,0.474925 0.0617,0.131603 0.148231,0.238436 0.25927,0.320687 0.111044,0.07813 0.242502,0.135719 0.394668,0.172732 0.152167,0.03702 0.318745,0.05548 0.499699,0.05548 0.127492,0 0.254963,-0.0061 0.382453,-0.01849 0.131603,-0.0083 0.252918,-0.01837 0.363959,-0.0307 0.111044,-0.01233 0.209897,-0.02466 0.296262,-0.03699 0.09048,-0.01645 0.160367,-0.02877 0.20972,-0.03699 v -2.005073 c 0,-0.180954 -0.02065,-0.345365 -0.06177,-0.493419 -0.04112,-0.152167 -0.11102,-0.281806 -0.209719,-0.388733 -0.09459,-0.111044 -0.222062,-0.195065 -0.382454,-0.252641 -0.156279,-0.0617 -0.349654,-0.09282 -0.579959,-0.09282 z m 6.384792,0 c -0.185062,0 -0.366123,0.03513 -0.54297,0.105033 -0.176839,0.06991 -0.332924,0.174927 -0.468644,0.314756 -0.135716,0.139828 -0.244717,0.316553 -0.326968,0.530409 -0.08226,0.209743 -0.12353,0.456359 -0.12353,0.740129 0,0.242644 0.03079,0.466802 0.09247,0.672432 0.0658,0.201518 0.164658,0.376423 0.29626,0.524477 0.131601,0.148053 0.29818,0.26538 0.4997,0.351744 0.20563,0.08226 0.44826,0.123181 0.727915,0.123181 0.222087,0 0.419443,-0.02064 0.592178,-0.06177 0.17684,-0.04113 0.300324,-0.08023 0.370235,-0.117248 l -0.08022,-0.480858 c -0.06988,0.0329 -0.174922,0.06767 -0.314753,0.104685 -0.13572,0.0329 -0.304117,0.04955 -0.505635,0.04955 -0.357798,0 -0.621064,-0.08654 -0.789678,-0.259272 -0.168615,-0.172729 -0.265309,-0.425503 -0.28998,-0.758625 h 2.196307 c 0.0042,-0.0329 0.0059,-0.06802 0.0059,-0.105033 v -0.09876 c 0,-0.551089 -0.115159,-0.960297 -0.345462,-1.227616 C 89.250602,13.830007 88.91961,13.69421 88.487781,13.69421 Z m -8.618092,0.01256 c -0.250868,0 -0.476846,0.02246 -0.678365,0.06769 -0.201516,0.04113 -0.370264,0.0864 -0.505981,0.135744 v 3.072182 h 0.573678 v -2.695662 c 0.0329,-0.0083 0.100977,-0.0227 0.203788,-0.04327 0.106928,-0.02468 0.213761,-0.03699 0.320688,-0.03699 0.164505,0 0.298133,0.01231 0.400949,0.03699 0.106928,0.02055 0.182975,0.03903 0.228214,0.05548 l 0.09876,-0.4997 c -0.02467,-0.0083 -0.06378,-0.01656 -0.117247,-0.02478 -0.04935,-0.01233 -0.104757,-0.02248 -0.16645,-0.0307 -0.0617,-0.01233 -0.125425,-0.02066 -0.191227,-0.02478 -0.0617,-0.0083 -0.117451,-0.01221 -0.166799,-0.01221 z m -32.158465,0.0307 v 3.244914 h 0.919491 v -3.244914 z m 16.563754,0 c 0.180955,0.259095 0.363837,0.522362 0.548904,0.789681 0.185067,0.263206 0.370116,0.524306 0.555183,0.783399 -0.106928,0.131603 -0.215929,0.273556 -0.326968,0.425724 -0.111044,0.148054 -0.217874,0.298331 -0.320689,0.450498 -0.0987,0.148054 -0.191402,0.291827 -0.277765,0.431654 -0.08636,0.139829 -0.154089,0.261143 -0.203441,0.363958 h 0.937639 c 0.04112,-0.08226 0.08856,-0.170614 0.142023,-0.265203 l 0.17273,-0.283699 c 0.05758,-0.0987 0.116971,-0.19539 0.178663,-0.289979 0.0658,-0.09459 0.12954,-0.181134 0.191228,-0.259273 0.0658,0.08225 0.131706,0.174951 0.197508,0.277767 0.06991,0.0987 0.135817,0.199377 0.197506,0.302193 0.0617,0.0987 0.117103,0.195389 0.166452,0.28998 0.04935,0.09048 0.09062,0.166526 0.123528,0.228214 h 0.98684 c -0.119263,-0.23032 -0.27969,-0.491419 -0.481205,-0.783413 -0.20152,-0.291995 -0.425677,-0.592203 -0.672434,-0.900649 l 1.110368,-1.560867 h -0.94985 l -0.641724,0.987189 -0.641377,-0.987189 z m 19.524621,0.03699 c 0.160391,0.600442 0.34726,1.176229 0.561117,1.727319 0.217967,0.551089 0.427643,1.04467 0.629161,1.480607 h 0.518195 c 0.201519,-0.435937 0.409375,-0.929518 0.623229,-1.480607 0.217969,-0.55109 0.407008,-1.126877 0.567399,-1.727319 h -0.592174 c -0.04935,0.201518 -0.108752,0.417702 -0.178664,0.648006 -0.0658,0.226194 -0.137862,0.452172 -0.216,0.678364 -0.07404,0.222082 -0.150076,0.437916 -0.228216,0.647659 -0.07813,0.209742 -0.152369,0.39696 -0.222284,0.561465 -0.06991,-0.164505 -0.143793,-0.351723 -0.221934,-0.561465 -0.07813,-0.209743 -0.156357,-0.425577 -0.234497,-0.647659 -0.07403,-0.226192 -0.146085,-0.45217 -0.216001,-0.678364 -0.0658,-0.230304 -0.123379,-0.446488 -0.172732,-0.648006 z m 4.681901,0.407229 c 0.234423,0 0.417652,0.08437 0.549252,0.25299 0.135719,0.164505 0.201274,0.37635 0.197162,0.635444 h -1.591575 c 0.01236,-0.111044 0.03734,-0.220041 0.07433,-0.326969 0.04112,-0.106929 0.09654,-0.201447 0.166446,-0.283698 0.06988,-0.08226 0.154286,-0.148156 0.25299,-0.197509 0.102813,-0.05346 0.219791,-0.08027 0.351398,-0.08027 z M 62.43041,14.409919 c 0.106928,0 0.195291,0.01846 0.265205,0.05548 0.07403,0.03702 0.133773,0.08446 0.179013,0.142025 0.04935,0.05758 0.08412,0.12348 0.104684,0.197507 0.02467,0.07403 0.03916,0.150075 0.04327,0.228215 h -1.215403 c 0.01233,-0.07813 0.03081,-0.154188 0.05548,-0.228215 0.02878,-0.07815 0.0679,-0.146213 0.117247,-0.20379 0.04936,-0.05758 0.111272,-0.102837 0.185296,-0.135742 0.07403,-0.03702 0.162388,-0.05548 0.265202,-0.05548 z m 14.206926,1.085942 c 0.131604,0 0.242771,0.008 0.333248,0.02443 0.09459,0.01233 0.162315,0.02899 0.203441,0.04955 v 0.956131 c -0.06991,0.01645 -0.158276,0.02877 -0.265205,0.03699 -0.102813,0.0042 -0.221962,0.0062 -0.357675,0.0062 -0.226194,0 -0.405087,-0.03911 -0.53669,-0.117247 -0.131605,-0.08226 -0.197508,-0.226374 -0.197508,-0.432005 0,-0.111044 0.02679,-0.199401 0.08027,-0.265202 0.05346,-0.06991 0.119023,-0.123506 0.197161,-0.160519 0.08225,-0.04112 0.170613,-0.06757 0.265202,-0.07991 0.0987,-0.01233 0.191404,-0.01849 0.277767,-0.01849 z m 5.601393,0 c 0.131604,0 0.242774,0.008 0.333252,0.02443 0.09459,0.01233 0.162312,0.02899 0.203437,0.04955 v 0.956131 c -0.06991,0.01645 -0.158276,0.02877 -0.265203,0.03699 -0.102813,0.0042 -0.22231,0.0062 -0.358025,0.0062 -0.226195,0 -0.405087,-0.03911 -0.536691,-0.117247 -0.131604,-0.08226 -0.197157,-0.226374 -0.197157,-0.432005 0,-0.111044 0.02678,-0.199401 0.08026,-0.265202 0.05346,-0.06991 0.119022,-0.123506 0.197159,-0.160519 0.08225,-0.04112 0.170616,-0.06757 0.265205,-0.07991 0.0987,-0.01233 0.191402,-0.01849 0.277766,-0.01849 z" />
  <path
     stroke-linecap="round"
     stroke-width="2.438"
     d="m 32.746867,13.755145 h 4.087229 m -4.087229,2.724261 h 4.087229 m 1.362409,3.406023 H 31.384458 A 1.3624093,1.3624093 0 0 1 30.022608,18.52302 V 8.9867143 a 1.3624093,1.3624093 0 0 1 1.36185,-1.3624095 h 3.805581 a 0.68120466,0.68120466 0 0 1 0.481147,0.1994997 l 3.688229,3.6882285 a 0.68120466,0.68120466 0 0 1 0.1995,0.481145 v 6.529842 a 1.3624093,1.3624093 0 0 1 -1.36241,1.362409 z"
     fill="none"
     stroke="currentColor"
     style="stroke:#ffffff;stroke-width:3.91514;stroke-linejoin:round;stroke-miterlimit:4;stroke-dasharray:none;paint-order:stroke fill markers"
     id="path8" />
  <path
     stroke-linecap="round"
     stroke-linejoin="round"
     stroke-width="1.36242"
     d="m 32.746867,13.755145 h 4.087229 m -4.087229,2.723702 h 4.087229 m 1.362409,3.406023 h -6.812047 a 1.3624093,1.3624093 0 0 1 -1.36241,-1.36241 V 8.9861555 A 1.3624093,1.3624093 0 0 1 31.3839,7.6237459 h 3.805581 a 0.68120466,0.68120466 0 0 1 0.480587,0.1994998 l 3.688228,3.6882283 a 0.68120466,0.68120466 0 0 1 0.200059,0.481146 v 6.52984 a 1.3624093,1.3624093 0 0 1 -1.362409,1.36241 z"
     fill="none"
     stroke="currentColor"
     id="path10" />
  <path
     style="fill:#ffffff;stroke:#ffffff;stroke-width:1.95452;stroke-linejoin:round;stroke-miterlimit:4;stroke-dasharray:none;paint-order:stroke fill markers"
     d="M 32.038173,10.738082 V 9.6017865 h 2.548495 l 1.06828,1.0703495 1.068428,1.070351 -2.065736,0.0017 c -1.136295,0.0011 -2.190528,0.03076 -2.342676,0.06609 l -0.276791,0.06432 z"
     id="path12" />
</svg>
