<svg width="479.375" height="98.103" viewBox="0 0 126.83 25.957" xmlns="http://www.w3.org/2000/svg"><g style="stroke:#fff;stroke-width:4.01625;stroke-linejoin:round;stroke-miterlimit:4;stroke-dasharray:none;paint-order:stroke fill markers"><text style="line-height:1.25;stroke:#fff;stroke-width:4.01625;stroke-linejoin:round;stroke-miterlimit:4;stroke-dasharray:none;paint-order:stroke fill markers" x="26.016" y="16.937" stroke-width=".31" font-family="sans-serif" font-size="12.46" font-weight="400" transform="translate(.788 .79)"><tspan x="26.016" y="16.937" style="-inkscape-font-specification:Ubuntu;stroke:#fff;stroke-width:4.01625;stroke-linejoin:round;stroke-miterlimit:4;stroke-dasharray:none;paint-order:stroke fill markers" font-family="Ubuntu"><tspan font-weight="700" style="stroke:#fff;stroke-width:4.01625;stroke-linejoin:round;stroke-miterlimit:4;stroke-dasharray:none;paint-order:stroke fill markers">Rich Text</tspan> Laravel</tspan></text><path stroke-linecap="round" stroke-width="2.438" d="M6.091 12.19h7.314m-7.314 4.875h7.314m2.438 6.095H3.653a2.438 2.438 0 0 1-2.437-2.438V3.657a2.438 2.438 0 0 1 2.437-2.438h6.81a1.219 1.219 0 0 1 .861.357l6.6 6.6a1.219 1.219 0 0 1 .357.861v11.685a2.438 2.438 0 0 1-2.438 2.438z" fill="none" stroke="currentColor" style="stroke:#fff;stroke-width:4.01625;stroke-linejoin:round;stroke-miterlimit:4;stroke-dasharray:none;paint-order:stroke fill markers" transform="translate(.788 .79)"/></g><path stroke-linecap="round" stroke-linejoin="round" stroke-width="2.438" d="M6.879 12.98h7.314m-7.314 4.874h7.314m2.438 6.095H4.44a2.438 2.438 0 0 1-2.437-2.438V4.446A2.438 2.438 0 0 1 4.44 2.008h6.81a1.219 1.219 0 0 1 .86.357l6.6 6.6a1.219 1.219 0 0 1 .358.861v11.685a2.438 2.438 0 0 1-2.438 2.438z" fill="none" stroke="currentColor"/></svg>